<svg xmlns="http://www.w3.org/2000/svg" width="16" height="16" fill="currentColor" viewBox="0 0 16 16"><path d="M8 5.1c.6 0 1.1-.5 1.1-1.1S8.6 2.9 8 2.9 6.9 3.4 6.9 4 7.4 5.1 8 5.1M9.6 13h.2c.3-.1.4-.5.3-.8 0 0-1.1-2.5-1.3-3.4 0-.3-.1-1.1-.1-1.5 0-.2 0-.3.2-.3l2.4-.7c.3 0 .5-.4.4-.7 0-.3-.4-.5-.7-.4 0 0-2.3.7-3.1.7s-3-.7-3-.7c-.3 0-.6 0-.7.4 0 .3 0 .7.4.7L7 7c.1 0 .2.2.2.3 0 .5 0 1.3-.1 1.6-.2.9-1.3 3.4-1.3 3.4-.1.3 0 .6.3.8h.2c.2 0 .4-.1.5-.3L8 10.4l1.1 2.4c.1.2.3.3.5.3"/><path d="M8 0C3.6 0 0 3.6 0 8s3.6 8 8 8 8-3.6 8-8-3.6-8-8-8m0 14.8c-3.7 0-6.8-3-6.8-6.8S4.3 1.2 8 1.2s6.8 3 6.8 6.8-3 6.8-6.8 6.8"/></svg>
