<svg xmlns="http://www.w3.org/2000/svg" width="12" height="12" fill="currentColor" viewBox="0 0 12 12"><path d="M5.226 1.356 2.984 4H1a1 1 0 0 0-1 1v3a1 1 0 0 0 1 1h1.984l2.242 2.644c.595.702 1.774.296 1.774-.611V1.967C7 1.06 5.821.654 5.226 1.356M8 3.338v6.324A3.738 3.738 0 0 0 9.75 6.5 3.738 3.738 0 0 0 8 3.338m.19 8.556a.5.5 0 0 0 .541.049C10.747 10.891 12 8.805 12 6.498c0-2.303-1.249-4.388-3.26-5.442a.505.505 0 0 0-.676.211.502.502 0 0 0 .211.676C9.956 2.823 11 4.568 11 6.498c0 1.933-1.047 3.68-2.731 4.558a.5.5 0 0 0-.078.838"/></svg>
