<svg xmlns="http://www.w3.org/2000/svg" width="16" height="16" fill="currentColor" viewBox="0 0 16 16"><path d="M7.245 1.35 4.117 5H2a2 2 0 0 0-2 2v2a2 2 0 0 0 2 2h2.117l3.128 3.65C7.848 15.353 9 14.927 9 14V2c0-.927-1.152-1.353-1.755-.65M11.764 15a.623.623 0 0 1-.32-1.162 6.783 6.783 0 0 0 3.306-5.805 6.767 6.767 0 0 0-3.409-5.864.624.624 0 1 1 .619-1.085A8.015 8.015 0 0 1 16 8.033a8.037 8.037 0 0 1-3.918 6.879c-.1.06-.21.088-.318.088m1.01-4.871a4.982 4.982 0 0 1-1.34 1.721H11V4.148h.431a4.983 4.983 0 0 1 1.343 5.98"/></svg>
