<svg xmlns="http://www.w3.org/2000/svg" width="16" height="16" fill="currentColor" viewBox="0 0 16 16"><path d="M9 2c0-.926-1.152-1.352-1.755-.649L5.757 3.087 9 6.33zm-7.372-.989c.163-.002.32.06.439.172l12.75 12.749a.626.626 0 0 1-.884.886l-.729-.729a7.576 7.576 0 0 1-1.122.823.62.62 0 0 1-.856-.219.624.624 0 0 1 .218-.856c.313-.186.6-.404.873-.636L9 9.884V14c0 .927-1.152 1.353-1.755.65L4.117 11H2a2 2 0 0 1-2-2V7a2 2 0 0 1 2-2h2.115L1.182 2.068a.626.626 0 0 1 .446-1.057M11 8.33V4.149h.432A4.982 4.982 0 0 1 13.25 8c0 .755-.175 1.464-.475 2.105zm2.833-3.687a6.767 6.767 0 0 0-2.492-2.474.625.625 0 1 1 .619-1.086A8.018 8.018 0 0 1 16 8.033a7.992 7.992 0 0 1-1.168 4.129l-.912-.912a6.732 6.732 0 0 0 .83-3.217 6.767 6.767 0 0 0-.917-3.39"/></svg>
