<svg xmlns="http://www.w3.org/2000/svg" width="16" height="16" fill="currentColor" viewBox="0 0 16 16"><path d="M12.919 3.581A6.206 6.206 0 0 0 8.5 1.75.625.625 0 0 1 8.5.5a7.456 7.456 0 0 1 5.304 2.196A7.455 7.455 0 0 1 16 8c0 1.95-.763 3.824-2.125 5.22l-.884-.884A6.222 6.222 0 0 0 14.75 8a6.206 6.206 0 0 0-1.831-4.419M5 2.286v2.059L2.655 2h2.059zm6.948 6.322-1.709.976L6 5.345v-.144a.7.7 0 0 1 1.048-.607l4.9 2.799a.7.7 0 0 1 0 1.215M1.067 2.183a.626.626 0 0 0-.885.885L1.79 4.674A7.461 7.461 0 0 0 1 8c0 4.136 3.364 7.5 7.5 7.5a7.387 7.387 0 0 0 3.321-.794l1.111 1.111a.627.627 0 0 0 .885-.885zM8.5 14.25A6.257 6.257 0 0 1 2.25 8c0-.826.173-1.63.484-2.382L6 8.885v1.914a.7.7 0 0 0 1.047.608l.938-.536 2.89 2.89a6.166 6.166 0 0 1-2.375.489"/></svg>
