<svg xmlns="http://www.w3.org/2000/svg" width="16" height="16" fill="currentColor" viewBox="0 0 16 16"><path d="M11.372 1.067c.91.377 1.737.93 2.432 1.629A7.455 7.455 0 0 1 16 8c0 4.136-3.364 7.5-7.5 7.5S1 12.136 1 8a7.451 7.451 0 0 1 1.105-3.895L.854 2.854A.5.5 0 0 1 1.207 2h3.52L5 2.273v3.52a.5.5 0 0 1-.853.354L3.022 5.022A6.211 6.211 0 0 0 2.25 8a6.257 6.257 0 0 0 6.25 6.25 6.257 6.257 0 0 0 5.777-8.643 6.207 6.207 0 0 0-1.358-2.026A6.206 6.206 0 0 0 8.5 1.75.625.625 0 0 1 8.5.5a7.455 7.455 0 0 1 2.872.567M6 5.201v5.598a.7.7 0 0 0 1.047.607l4.9-2.799a.7.7 0 0 0 0-1.215l-4.9-2.799A.7.7 0 0 0 6 5.201"/></svg>
