<svg xmlns="http://www.w3.org/2000/svg" width="16" height="16" fill="currentColor" viewBox="0 0 16 16"><path d="M1.85 11.75h4.163c.019.432.086.85.199 1.25H2a2 2 0 0 1-2-2V2a2 2 0 0 1 2-2h10a2 2 0 0 1 2 2v4.605a5.478 5.478 0 0 0-1.25-.457V5.25H1.25v5.9zm0-10.5-.6.6V4h11.5V1.85l-.6-.6zm6.468 7.068a4.5 4.5 0 1 1 6.364 6.364 4.5 4.5 0 0 1-6.364-6.364m4.994.486A3.224 3.224 0 0 0 11.5 8.25a3.254 3.254 0 0 0-3.25 3.25c0 .646.193 1.277.554 1.812zm-3.624 5.392a3.224 3.224 0 0 0 1.812.554 3.254 3.254 0 0 0 3.25-3.25c0-.67-.205-1.294-.554-1.812z"/></svg>
