<svg xmlns="http://www.w3.org/2000/svg" width="20" height="20" fill="currentColor" viewBox="0 0 20 20"><g clip-path="url(#clip0_3829_1038)"><path d="M9.609 2.398 7.795 6.955a.875.875 0 0 1-.756.55l-4.894.316a.42.42 0 0 0-.241.743l3.773 3.133c.26.216.372.562.289.889l-1.211 4.753a.42.42 0 0 0 .631.46l4.147-2.622c.285-.18.649-.18.935 0l4.145 2.621a.42.42 0 0 0 .632-.46l-1.21-4.752a.875.875 0 0 1 .288-.89l3.773-3.132a.42.42 0 0 0-.241-.743l-4.895-.317a.875.875 0 0 1-.756-.55L10.39 2.399a.42.42 0 0 0-.781 0m2.407-.648c-.726-1.824-3.306-1.822-4.033 0l-1.61 4.044-4.342.28C.074 6.203-.724 8.658.786 9.91l3.348 2.78-1.075 4.217c-.484 1.9 1.603 3.42 3.263 2.37L10 16.953l3.678 2.326c1.659 1.047 3.747-.469 3.263-2.37l-1.074-4.218 3.347-2.78c1.51-1.254.712-3.708-1.246-3.835l-4.342-.281z"/></g></svg>
