<svg xmlns="http://www.w3.org/2000/svg" width="12" height="12" fill="currentColor" viewBox="0 0 12 12"><g clip-path="url(#clip0_3829_1185)"><path d="M8.82 11.78c-.27 0-.53-.07-.77-.22L6 10.26l-2.05 1.3c-.5.32-1.14.29-1.61-.05-.48-.35-.69-.94-.55-1.52l.6-2.35L.52 6.09a1.43 1.43 0 0 1-.45-1.55c.18-.56.68-.95 1.28-.99l2.42-.16.9-2.25c.22-.55.74-.91 1.34-.91.6 0 1.12.36 1.34.91l.9 2.25 2.42.16c.59.04 1.09.43 1.28.99.18.56 0 1.17-.45 1.55L9.63 7.64l.6 2.35c.15.57-.07 1.17-.55 1.52-.25.18-.55.28-.85.28zM6 8.9c.12 0 .23.03.33.1l2.38 1.51c.09.06.16.03.21 0 .05-.03.1-.1.07-.2l-.7-2.73a.61.61 0 0 1 .21-.63l2.17-1.8c.08-.07.08-.15.06-.2a.189.189 0 0 0-.17-.13l-2.81-.18a.639.639 0 0 1-.54-.39L6.17 1.63c-.08-.2-.27-.2-.35 0L4.78 4.25c-.09.22-.3.38-.54.39l-2.81.18c-.11 0-.15.07-.17.13-.02.06-.02.14.06.2l2.17 1.8c.19.15.27.4.21.63L3 10.31c-.03.1.02.17.07.2s.12.06.21 0L5.66 9c.1-.06.22-.1.33-.1z"/></g></svg>
