<svg xmlns="http://www.w3.org/2000/svg" width="16" height="16" fill="currentColor" viewBox="0 0 16 16"><path d="M9.67 10.799a1.289 1.289 0 0 0 1.45-.047 1.282 1.282 0 0 0 .492-1.363l-.598-2.344L12.875 5.5a1.289 1.289 0 0 0 .403-1.394 1.286 1.286 0 0 0-1.144-.889l-2.415-.156L8.825.813A1.285 1.285 0 0 0 7.625 0c-.532 0-1.003.319-1.199.813l-.894 2.248-2.414.156a1.286 1.286 0 0 0-1.145.889 1.287 1.287 0 0 0 .403 1.393l1.862 1.546-.598 2.344a1.282 1.282 0 0 0 .492 1.363 1.29 1.29 0 0 0 1.448.047l2.045-1.293zM7.959 8.238h-.668l-2.024 1.21a.2.2 0 0 1-.297-.221l.576-2.256-.206-.635-1.777-1.552a.2.2 0 0 1 .119-.35l2.325-.15.54-.393.898-2.203a.2.2 0 0 1 .37-.002c.31.75.888 2.204.888 2.204l.54.393 2.349.211a.2.2 0 0 1 .11.353L9.91 6.335l-.206.635.526 2.299a.2.2 0 0 1-.302.214zm5.705 6.176A2 2 0 0 1 12.25 15H3a2 2 0 0 1-2-2v-1.375a.625.625 0 1 1 1.25 0v1.525l.6.6h9.55l.6-.6v-1.525a.624.624 0 1 1 1.25 0V13a2 2 0 0 1-.586 1.414"/></svg>
