<svg xmlns="http://www.w3.org/2000/svg" width="40" height="40" fill="currentColor" viewBox="0 0 40 40"><path d="M12 4.5A4.5 4.5 0 0 1 16.5 0h7A4.5 4.5 0 0 1 28 4.5V8h7.5a4.5 4.5 0 0 1 4.5 4.5v20a4.5 4.5 0 0 1-4.5 4.5h-31A4.5 4.5 0 0 1 0 32.5v-20A4.5 4.5 0 0 1 4.5 8H12zm13.25 0V8h-10.5V4.5c0-.967.783-1.75 1.75-1.75h7c.967 0 1.75.783 1.75 1.75m-22.5 8c0-.967.783-1.75 1.75-1.75h4.75v23.5H4.5a1.75 1.75 0 0 1-1.75-1.75zm28 21.75h4.75a1.75 1.75 0 0 0 1.75-1.75v-20a1.75 1.75 0 0 0-1.75-1.75h-4.75zm-2.75 0v-23.5H12v23.5z"/></svg>
