<svg xmlns="http://www.w3.org/2000/svg" width="16" height="16" fill="currentColor" viewBox="0 0 16 16"><path d="M13.986 2.824c-.491 0-.992.182-1.4.59L12 4a2 2 0 0 0-2-2H3a2 2 0 0 0-2 2v8a2 2 0 0 0 2 2h7a2 2 0 0 0 2-2l.586.586c.407.407.908.59 1.4.59 1.028 0 2.014-.798 2.014-2.004V4.828c0-1.205-.986-2.004-2.014-2.004m.764 8.348c0 .52-.447.754-.764.754a.71.71 0 0 1-.516-.224l-.586-.586L11.268 9.5h-.518v2.65l-.6.6h-7.3l-.6-.6v-8.3l.6-.6h7.3l.6.6V6.5h.518l1.616-1.616.586-.586a.713.713 0 0 1 .516-.224c.317 0 .764.234.764.754z"/></svg>
