<svg xmlns="http://www.w3.org/2000/svg" width="16" height="16" fill="currentColor" viewBox="0 0 16 16"><path d="M12.88 5.08c-.27-.44-1-.44-1.28 0-.25.41-.56.79-.9 1.13C10.33 3.4 8.35.99 5.55.04a.742.742 0 0 0-.95.93c.61 1.96.16 4.12-1.18 5.69l-.07.07c-.02.02-.04.05-.06.07l-.05.06s-.03.04-.04.06c-1.74 2.22-1.54 5.43.5 7.43a5.81 5.81 0 0 0 4.06 1.64 5.8 5.8 0 0 0 4.07-1.65C13.23 12.93 14 11.04 14 9c0-1.39-.39-2.75-1.12-3.93zm-2.11 8.2c-.25.25-.54.44-.83.62.04-.21.06-.42.06-.64 0-1.42-.7-2.7-1.79-3.21a.512.512 0 0 0-.42 0C6.7 10.56 6 11.84 6 13.26c0 .32.04.62.11.92-.5-.2-.96-.5-1.36-.89-1.53-1.49-1.67-3.81-.35-5.45a7.546 7.546 0 0 0 1.95-5.78c1.8 1.1 2.94 3.04 2.94 5.17 0 .15 0 .3-.02.44-.02.28.12.55.36.7.24.15.54.14.79 0 .64-.4 1.22-.89 1.71-1.45.25.67.38 1.38.38 2.1 0 1.64-.62 3.16-1.73 4.27z"/></svg>
