<svg xmlns="http://www.w3.org/2000/svg" width="20" height="20" fill="currentColor" viewBox="0 0 20 20"><path d="M10 .5A9.5 9.5 0 0 0 .5 10a9.5 9.5 0 0 0 9.5 9.5 9.5 9.5 0 0 0 9.5-9.5A9.5 9.5 0 0 0 10 .5m7.962 8.75h-3.008a11.503 11.503 0 0 0-2.666-6.65h.742a8.014 8.014 0 0 1 4.932 6.65m-7.749 8.15h-.429a9.988 9.988 0 0 1-3.238-6.65h6.908a9.978 9.978 0 0 1-3.241 6.65M6.546 9.25A10.007 10.007 0 0 1 9.778 2.6h.446a10.015 10.015 0 0 1 3.231 6.65zM6.97 2.6h.743a11.499 11.499 0 0 0-2.667 6.65H2.038A8.014 8.014 0 0 1 6.97 2.6m-4.932 8.15h3.008a11.476 11.476 0 0 0 2.67 6.65H6.97a8.014 8.014 0 0 1-4.932-6.65M13.03 17.4h-.733a11.465 11.465 0 0 0 2.658-6.65h3.007a8.014 8.014 0 0 1-4.932 6.65"/></svg>
