<svg xmlns="http://www.w3.org/2000/svg" width="16" height="16" fill="currentColor" viewBox="0 0 16 16"><path d="M8.5 1a7.5 7.5 0 1 0 0 15 7.5 7.5 0 0 0 0-15m2.447 1.75a6.254 6.254 0 0 1 3.756 5.125h-2.229A9.426 9.426 0 0 0 10.54 2.75zm-2.049 0a8.21 8.21 0 0 1 2.321 5.125H5.781A8.211 8.211 0 0 1 8.102 2.75zm-2.846 0h.408a9.434 9.434 0 0 0-1.934 5.125H2.297A6.254 6.254 0 0 1 6.052 2.75m0 11.5a6.252 6.252 0 0 1-3.755-5.125h2.229A9.426 9.426 0 0 0 6.46 14.25zm2.05 0a8.21 8.21 0 0 1-2.321-5.125h5.437a8.21 8.21 0 0 1-2.321 5.125zm2.846 0h-.409a9.418 9.418 0 0 0 1.934-5.125h2.229a6.253 6.253 0 0 1-3.754 5.125"/></svg>
