<svg xmlns="http://www.w3.org/2000/svg" width="16" height="16" fill="currentColor" viewBox="0 0 16 16"><path d="M2.499 12.625c.12 0 .24-.02.358-.059L6.29 11.42l6.999-6.998a1.88 1.88 0 0 0 0-2.652L12.229.71a1.88 1.88 0 0 0-2.652 0L2.578 7.709l-1.145 3.436a1.123 1.123 0 0 0 1.066 1.48m7.962-11.03a.624.624 0 0 1 .883 0l1.061 1.061a.624.624 0 0 1 0 .883L11.34 4.605 9.395 2.66zM3.67 8.385l4.84-4.84 1.944 1.944-4.84 4.841-2.917.973zM14.817 13.314l-1.794.548a4.375 4.375 0 0 1-2.137.106l-2.082-.417a5.665 5.665 0 0 0-3.619.485 3.196 3.196 0 0 1-3.693-.6l-.051-.051-.833.936a4.448 4.448 0 0 0 5.136.832 4.394 4.394 0 0 1 2.815-.376l2.082.417c.91.182 1.86.133 2.747-.138l1.794-.548z"/></svg>
