<svg xmlns="http://www.w3.org/2000/svg" width="16" height="16" fill="currentColor" viewBox="0 0 16 16"><path d="m.019 13.665.594-3.201c.075-.41.272-.784.568-1.082L9.982.582a1.99 1.99 0 0 1 2.81 0l1.628 1.628a1.99 1.99 0 0 1 0 2.81l-8.804 8.803c-.296.295-.67.49-1.078.566l-3.202.594a1.13 1.13 0 0 1-1.317-1.317m12.453-8.468 1.16-1.16-.001-.848-1.82-1.822-.848.002-1.16 1.16zm-8.161 7.962a.802.802 0 0 0 .423-.225l6.853-6.852-2.668-2.668-6.853 6.852a.823.823 0 0 0-.225.425l-.474 2.557.385.386z"/></svg>
