<svg xmlns="http://www.w3.org/2000/svg" width="20" height="20" fill="currentColor" viewBox="0 0 20 20"><path d="M11.001 2.469c1.08.744 2.09 1.586 3.017 2.514 4.664 4.664 6.335 10.303 3.802 12.837-.8.799-1.909 1.18-3.199 1.18-1.523 0-3.299-.549-5.115-1.552C7.686 18.45 5.906 19 4.38 19c-1.29 0-2.399-.38-3.199-1.179-1.745-1.746-1.494-4.966.356-8.326-1.845-3.356-2.099-6.57-.356-8.314C2.924-.563 6.141-.314 9.5 1.534c3.356-1.847 6.574-2.098 8.32-.352.51.511.842 1.153 1.021 1.884a2.72 2.72 0 0 0-.589-.067c-.328 0-.639.067-.93.173a2.418 2.418 0 0 0-.563-.93c-.514-.513-1.254-.755-2.14-.755-1.047 0-2.3.354-3.618.982m-6.62-.982c-.886 0-1.626.242-2.14.755-1.122 1.121-.942 3.33.222 5.766a21.371 21.371 0 0 1 2.52-3.025 21.342 21.342 0 0 1 3.016-2.514c-1.317-.627-2.57-.982-3.618-.982m-1.917 9.505c-1.163 2.436-1.344 4.645-.223 5.767 1.876 1.873 6.781.132 10.716-3.802a19.268 19.268 0 0 0 2.752-3.465 19.451 19.451 0 0 0-2.752-3.449A19.5 19.5 0 0 0 9.5 3.284a19.497 19.497 0 0 0-3.457 2.759 19.486 19.486 0 0 0-2.758 3.458 19.06 19.06 0 0 0 2.02 2.677 2.733 2.733 0 0 0-1.218.89 20.923 20.923 0 0 1-1.623-2.076m8.521 5.541c2.438 1.168 4.65 1.348 5.774.226 1.12-1.121.94-3.327-.22-5.76a21.427 21.427 0 0 1-2.52 3.019 21.339 21.339 0 0 1-3.034 2.515M5.5 13.5H7l.5.5v1.5L7 16H5.5l-.5-.5V14zm13.5-9h-1.5L17 5v1.5l.5.5H19l.5-.5V5zm-12.5 5c0 1.654 1.346 3 3 3s3-1.346 3-3-1.346-3-3-3-3 1.346-3 3m1.5 0C8 8.673 8.673 8 9.5 8s1.5.673 1.5 1.5-.673 1.5-1.5 1.5S8 10.327 8 9.5"/></svg>
