<svg xmlns="http://www.w3.org/2000/svg" width="20" height="20" fill="currentColor" viewBox="0 0 20 20"><path d="M15.5 5h-2V3.127c0-1.594-1.183-2.961-2.693-3.112A3.003 3.003 0 0 0 7.5 2.999V5h-3A2.5 2.5 0 0 0 2 7.5v2.25c0 .69.56 1.25 1.25 1.25h1.623c.833 0 1.544.59 1.62 1.343a1.49 1.49 0 0 1-.379 1.163c-.285.314-.69.494-1.113.494H3.25C2.56 14 2 14.56 2 15.25v2.25A2.5 2.5 0 0 0 4.5 20h11a2.5 2.5 0 0 0 2.5-2.5v-10A2.5 2.5 0 0 0 15.5 5m1 12.7-.8.8H4.3l-.8-.8v-2.2h1.501a3.005 3.005 0 0 0 2.85-2.067c.13-.399.176-.821.134-1.239C7.834 10.683 6.467 9.5 4.873 9.5H3.5V7.3l.8-.8H8a1 1 0 0 0 1-1V2.999a1.502 1.502 0 0 1 1.657-1.492c.753.075 1.343.787 1.343 1.62V5.5a1 1 0 0 0 1 1h2.7l.8.8z"/></svg>
