<svg xmlns="http://www.w3.org/2000/svg" width="16" height="16" fill="currentColor" viewBox="0 0 16 16"><path d="M13.375 16h-9.75A1.626 1.626 0 0 1 2 14.375V11.5a.75.75 0 0 1 .75-.75H4.5c.689 0 1.25-.561 1.25-1.25S5.189 8.25 4.5 8.25H2.75A.75.75 0 0 1 2 7.5V5.625C2 4.728 2.728 4 3.625 4H6V2.648C6 1.341 6.938.147 8.238.014A2.502 2.502 0 0 1 11 2.5V4h2.375C14.272 4 15 4.728 15 5.625v8.75c0 .897-.728 1.625-1.625 1.625M3.25 12v2.15l.6.6h9.3l.6-.6v-8.3l-.6-.6H10.5a.75.75 0 0 1-.75-.75v-2c0-.689-.561-1.25-1.25-1.25s-1.25.561-1.25 1.25v2a.75.75 0 0 1-.75.75H3.75l-.5.6V7h1.103c1.308 0 2.502.939 2.634 2.24A2.503 2.503 0 0 1 4.5 12z"/></svg>
