<svg xmlns="http://www.w3.org/2000/svg" width="16" height="16" fill="currentColor" viewBox="0 0 16 16"><path d="M13.876 3.9C12.53 1.83 9.707.793 7.166 1.436a5.258 5.258 0 0 0-2.575 1.502l-.877-.877A6.486 6.486 0 0 1 6.86.225c3.043-.768 6.436.489 8.064 2.995 1.008 1.549 2.065 4.675-.681 9.37l-.916-.916c2.206-3.957 1.372-6.506.549-7.774M.628 1.011c.163-.002.32.06.439.172l13.75 13.749a.628.628 0 0 1 0 .885.633.633 0 0 1-.886.001l-1.114-1.114-.065.087c-.054.073-.107.146-.166.22a.626.626 0 0 1-.982-.774c.088-.11.167-.218.246-.326l.074-.101-1.094-1.094c-1.046 1.369-2.598 2.623-4.931 3.262a.625.625 0 0 1-.329-1.205c2.09-.573 3.461-1.713 4.37-2.948l-1.229-1.229C7.591 12.05 5.848 13 3.875 13H.625a.627.627 0 0 1 0-1.251h3.25c1.631 0 3.06-.814 3.941-2.049L6.227 8.111a3.609 3.609 0 0 1-3.292 2.139H.625a.625.625 0 1 1 0-1.25h2.31a2.367 2.367 0 0 0 2.312-1.867L3.304 5.19a7.478 7.478 0 0 0-.316 1.643c-.027.344-.364.585-.673.573a.626.626 0 0 1-.573-.672 8.267 8.267 0 0 1 .602-2.504L.182 2.068a.626.626 0 0 1 .446-1.057m10.538 8.502.958.958c.77-1.847.839-3.412.836-3.412.148-.923-.111-1.85-.729-2.611A3.973 3.973 0 0 0 9.77 3.054a3.948 3.948 0 0 0-2.774.553c-.36.231-.653.52-.895.84l.894.894a2.17 2.17 0 0 1 .674-.682c.545-.351 1.22-.48 1.902-.371a2.71 2.71 0 0 1 1.689.947c.391.481.556 1.059.457 1.708 0 .027-.047 1.157-.551 2.57M8.75 6.875v-.25a.625.625 0 1 1 1.25 0v.25c0 .455-.054.897-.148 1.324L8.73 7.077c0-.033.005-.064.01-.095.005-.035.01-.07.01-.107"/></svg>
