<svg xmlns="http://www.w3.org/2000/svg" width="16" height="16" fill="currentColor" viewBox="0 0 16 16"><path d="M12.096 15.248a.625.625 0 0 1-.491-1.012C15.886 8.79 14.866 5.423 13.876 3.9 12.53 1.83 9.707.793 7.166 1.435c-2.428.615-3.951 2.583-4.178 5.397-.027.345-.364.585-.673.574a.626.626 0 0 1-.573-.673C2.011 3.4 3.924.967 6.859.224c3.044-.768 6.437.49 8.064 2.995 1.172 1.803 2.426 5.732-2.337 11.791a.624.624 0 0 1-.49.238M.625 13a.625.625 0 0 1 0-1.25h3.25A4.88 4.88 0 0 0 8.75 6.875v-.25a.625.625 0 0 1 1.25 0v.25A6.132 6.132 0 0 1 3.875 13zm4.693 2.849a.624.624 0 0 0 .581.13c6.791-1.86 7.066-8.92 7.061-8.92.149-.923-.111-1.849-.729-2.611A3.964 3.964 0 0 0 9.77 3.054a3.95 3.95 0 0 0-2.774.553c-.826.529-1.363 1.328-1.509 2.24l-.215 1.196A2.373 2.373 0 0 1 2.935 9H.625a.625.625 0 0 0 0 1.25h2.31a3.622 3.622 0 0 0 3.567-2.986l.217-1.209c.091-.566.429-1.062.95-1.396.545-.35 1.219-.48 1.902-.37.66.096 1.262.433 1.689.946a2.113 2.113 0 0 1 .457 1.708c-.001.061-.236 6.21-6.148 7.83a.624.624 0 0 0-.251 1.076"/></svg>
