<svg xmlns="http://www.w3.org/2000/svg" width="16" height="16" fill="currentColor" viewBox="0 0 16 16"><g clip-path="url(#clip0_3940_1236)"><path d="m15.13 11.32-2.2-2.2a.409.409 0 0 0-.7.29v1.01a5.738 5.738 0 0 0-5.22 4.51c-.09.43.46.7.72.35a6.129 6.129 0 0 1 4.49-2.41v.95c0 .37.44.55.7.29l2.2-2.2a.41.41 0 0 0 0-.58z"/><path d="M12.09 2.98c.63.42 1.12 1.02 1.41 1.72.44 1.08.6 2.25.46 3.41l-.03.26-.06.27-.22-.22c-.89-.89-2.41-.26-2.41 1v.14a6.725 6.725 0 0 0-4.99 4.42A6.913 6.913 0 0 1 0 7.22v-.28c.02-.17.03-.29.05-.39l.02-.16c.04-.27.09-.5.11-.59v-.04c.18-.74.5-1.44.95-2.05.2-.27.42-.52.65-.76.21-.21.44-.4.69-.57.07-.05.15-.09.23-.12-.06.58.02 1.16.24 1.7.47-.53 1.04-.96 1.69-1.26-.15.54-.14 1.12.02 1.66.07.05.12.09.18.13.1.09.22.2.46.43l.02.02c.54.38 1.1.7 1.7.98-.19.34-.48.61-.84.75-1.99 0-2.32 1.17-2.32 1.17.07.48.25.93.54 1.32.29.39.67.7 1.11.9.04.02.08.04.12.05.07.03.14.06.21.08.29.1.6.16.91.18.65.08 1.31-.06 1.87-.42.55-.35.97-.89 1.16-1.52.2-.63.17-1.3-.09-1.91-.25-.61-.71-1.11-1.29-1.41.59-.08 1.19.07 1.69.4-.32-.53-.77-.97-1.31-1.27-.54-.3-1.15-.46-1.77-.46h-.25c.08-.77.33-1.52.75-2.17C7.94.94 8.51.4 9.18 0h.02v.02c.03.09.06.18.11.27.02.04.05.09.08.14l.17.26c.44.67.92 1.2 1.39 1.71.7.77 1.37 1.5 1.84 2.65-.13-.73-.37-1.43-.71-2.07z"/></g></svg>
