<svg xmlns="http://www.w3.org/2000/svg" width="16" height="16" fill="currentColor" viewBox="0 0 16 16"><g clip-path="url(#clip0_3940_1200)"><path d="m15.63 11.32-2.2-2.2a.409.409 0 0 0-.7.29v1.01a5.738 5.738 0 0 0-5.22 4.51c-.09.43.46.7.72.35a6.129 6.129 0 0 1 4.49-2.41v.95c0 .37.44.55.7.29l2.2-2.2a.41.41 0 0 0 0-.58z"/><path d="M0 7c0-3.87 3.13-7 7-7a6.995 6.995 0 0 1 6.89 8.22c-.49-.32-1.09-.28-1.53.01.04-.16.07-.32.09-.48h-1.93c-.07.85-.25 1.66-.54 2.43-1.52.8-2.7 2.16-3.25 3.82A6.999 6.999 0 0 1 0 7.01zm1.55-.75a5.475 5.475 0 0 1 3.47-4.38 9.114 9.114 0 0 0-1.54 4.38zm0 1.5h1.93c.13 1.62.68 3.11 1.54 4.38a5.49 5.49 0 0 1-3.47-4.38m3.43 0c.17 1.72.9 3.27 2.02 4.47a7.662 7.662 0 0 0 2.02-4.47zM7 1.78a7.662 7.662 0 0 0-2.02 4.47h4.03c-.17-1.72-.9-3.27-2.02-4.47zm1.98.08a9.114 9.114 0 0 1 1.54 4.38h1.93a5.475 5.475 0 0 0-3.47-4.38"/></g></svg>
