<svg xmlns="http://www.w3.org/2000/svg" width="16" height="17" fill="currentColor" viewBox="0 0 16 17"><path d="M15.422 5.485a4.383 4.383 0 0 0-1.607-1.966c.393.736.667 1.53.812 2.353v.017c-.9-2.186-2.442-3.067-3.7-4.984l-.19-.3a2.704 2.704 0 0 1-.087-.16 1.354 1.354 0 0 1-.124-.318.028.028 0 0 0-.008-.008.027.027 0 0 0-.02 0h-.005a5.633 5.633 0 0 0-2.755 4.308c.093-.006.187-.014.281-.014a4.063 4.063 0 0 1 3.51 1.984 2.835 2.835 0 0 0-1.93-.453 3.198 3.198 0 0 1 1.577 3.797 3.204 3.204 0 0 1-3.462 2.216 3.642 3.642 0 0 1-1.413-.354A3.275 3.275 0 0 1 4.414 9.07s.369-1.334 2.647-1.334a1.91 1.91 0 0 0 .964-.857 12.773 12.773 0 0 1-1.941-1.117c-.29-.28-.43-.413-.552-.513a2.359 2.359 0 0 0-.208-.152 3.485 3.485 0 0 1-.021-1.894 5.91 5.91 0 0 0-1.929 1.441 4.097 4.097 0 0 1-.276-1.942 1.565 1.565 0 0 0-.267.139c-.28.193-.542.41-.783.649a6.948 6.948 0 0 0-.748.867A6.462 6.462 0 0 0 .22 6.705c0 .009-.076.325-.131.715l-.025.18c-.02.117-.033.245-.048.444v.023c-.005.076-.011.16-.016.258v.04a7.884 7.884 0 0 0 8.008 7.75 7.943 7.943 0 0 0 7.9-6.44l.036-.3a7.71 7.71 0 0 0-.522-3.891"/></svg>
