<svg xmlns="http://www.w3.org/2000/svg" width="12" height="12" fill="currentColor" viewBox="0 0 12 12"><g clip-path="url(#clip0_3829_1102)"><path d="M5.25 6.75v-1.5h1.5v1.5z"/><path d="M6 0a3.025 3.025 0 0 0-2.916 2.224h-.05A3.034 3.034 0 0 0 0 5.258c0 .936.427 1.763 1.087 2.315a2.968 2.968 0 0 0-.346 1.392 3.034 3.034 0 0 0 5.258 2.062 3.034 3.034 0 0 0 5.258-2.062c0-.506-.128-.978-.346-1.39A3.004 3.004 0 0 0 12 5.258a3.034 3.034 0 0 0-3.083-3.034A3.026 3.026 0 0 0 6 0M4.226 2.952C4.27 2.002 5.046 1.25 6 1.25c.954 0 1.73.752 1.775 1.703a.625.625 0 0 0 .77.579c.152-.037.289-.057.421-.057.985 0 1.784.798 1.784 1.784 0 .69-.399 1.288-.989 1.585a.625.625 0 0 0-.193.966c.275.319.439.718.439 1.155a1.784 1.784 0 0 1-3.431.684.625.625 0 0 0-1.154 0 1.783 1.783 0 0 1-3.431-.684c0-.437.164-.836.439-1.155a.625.625 0 0 0-.192-.966 1.777 1.777 0 0 1 .796-3.37c.133 0 .27.02.422.057a.625.625 0 0 0 .77-.58"/></g></svg>
