<svg xmlns="http://www.w3.org/2000/svg" width="16" height="16" fill="currentColor" viewBox="0 0 16 16"><g clip-path="url(#clip0_3828_975)"><path d="M7 9V7h2v2z"/><path d="M8 0a3.988 3.988 0 0 0-3.863 3.003A4 4 0 0 0 0 7c0 1.26.587 2.372 1.491 3.1A3.918 3.918 0 0 0 1 12a4 4 0 0 0 7 2.644A4 4 0 0 0 15 12c0-.694-.182-1.34-.491-1.9A3.967 3.967 0 0 0 16 7a4 4 0 0 0-4.137-3.997A3.988 3.988 0 0 0 8 0M5.514 3.885A2.492 2.492 0 0 1 8 1.5a2.492 2.492 0 0 1 2.486 2.385.75.75 0 0 0 .927.694A2.47 2.47 0 0 1 12 4.5 2.5 2.5 0 0 1 14.5 7c0 .97-.56 1.807-1.383 2.222a.75.75 0 0 0-.23 1.16A2.47 2.47 0 0 1 13.5 12a2.5 2.5 0 0 1-4.808.96.75.75 0 0 0-1.384 0A2.499 2.499 0 0 1 2.5 12c0-.614.231-1.175.613-1.619a.75.75 0 0 0-.23-1.159A2.49 2.49 0 0 1 1.5 7 2.5 2.5 0 0 1 4 4.5c.19 0 .382.029.587.079a.75.75 0 0 0 .927-.694"/></g></svg>
