<svg xmlns="http://www.w3.org/2000/svg" width="40" height="40" fill="currentColor" viewBox="0 0 40 40"><g clip-path="url(#clip0_4056_1160)"><path d="M17.5 17.5h5v5h-5z"/><path d="M20 0c-4.695 0-8.58 3.331-9.491 7.744a8.457 8.457 0 0 0-.784-.037c-5.37 0-9.724 4.354-9.724 9.724 0 3.233 1.59 6.064 4.002 7.822a9.54 9.54 0 0 0-1.433 5.023c0 5.37 4.354 9.724 9.724 9.724a9.699 9.699 0 0 0 7.707-3.8 9.699 9.699 0 0 0 7.707 3.8c5.37 0 9.724-4.354 9.724-9.724a9.54 9.54 0 0 0-1.433-5.023C38.411 23.495 40 20.663 40 17.43c0-5.37-4.354-9.724-9.724-9.724-.267 0-.529.013-.784.037C28.58 3.331 24.696 0 20 0m-6.937 9.403C13.236 5.697 16.267 2.75 20 2.75s6.765 2.947 6.938 6.653a1.375 1.375 0 0 0 1.696 1.272 6.955 6.955 0 0 1 1.642-.218 6.974 6.974 0 0 1 6.974 6.974c0 2.71-1.567 5.046-3.856 6.201a1.375 1.375 0 0 0-.423 2.124c1.062 1.235 1.711 2.8 1.711 4.52a6.973 6.973 0 0 1-13.412 2.677 1.375 1.375 0 0 0-2.538 0A6.973 6.973 0 0 1 5.32 30.276c0-1.72.65-3.285 1.71-4.52a1.375 1.375 0 0 0-.423-2.124c-2.29-1.155-3.856-3.49-3.856-6.201a6.974 6.974 0 0 1 6.974-6.974c.54 0 1.08.082 1.64.218a1.375 1.375 0 0 0 1.698-1.272"/></g></svg>
