<svg xmlns="http://www.w3.org/2000/svg" width="20" height="20" fill="currentColor" viewBox="0 0 20 20"><g clip-path="url(#clip0_3829_1043)"><path d="M8.75 8.75h2.5v2.5h-2.5z"/><path d="M10 0a4.951 4.951 0 0 0-4.809 3.782A4.966 4.966 0 0 0 0 8.742c0 1.586.75 2.982 1.898 3.885a4.865 4.865 0 0 0-.639 2.409A4.966 4.966 0 0 0 10 18.258a4.966 4.966 0 0 0 8.742-3.222c0-.883-.238-1.702-.64-2.41A4.927 4.927 0 0 0 20 8.741a4.966 4.966 0 0 0-5.192-4.96A4.95 4.95 0 0 0 10 0M6.802 4.818A3.206 3.206 0 0 1 10 1.75a3.205 3.205 0 0 1 3.197 3.066.875.875 0 0 0 1.08.81c.265-.064.513-.101.757-.101a3.216 3.216 0 0 1 3.216 3.216c0 1.248-.72 2.325-1.779 2.86a.875.875 0 0 0-.269 1.351c.492.572.79 1.294.79 2.084a3.216 3.216 0 0 1-6.184 1.235.875.875 0 0 0-1.616 0 3.216 3.216 0 0 1-6.184-1.235c0-.791.298-1.512.79-2.084a.875.875 0 0 0-.27-1.351A3.203 3.203 0 0 1 1.75 8.742a3.216 3.216 0 0 1 3.216-3.216c.244 0 .492.037.757.101a.875.875 0 0 0 1.08-.81"/></g></svg>
