<svg xmlns="http://www.w3.org/2000/svg" width="16" height="16" fill="currentColor" viewBox="0 0 16 16"><path d="m5.548 8.755.257-1.671c.049-.316.168-.603.367-.893.367-.53.566-1.538.52-2.181-.415-5.802-5.94-5.097-5.683.75.027.623.311 1.36.49 1.77.105.241.184.493.237.75l.309 1.475zM6 11v-.5a.5.5 0 0 0-.5-.5h-3a.5.5 0 0 0-.5.5v.5c0 1.1.9 2 2 2s2-.9 2-2m7.07 1.5v.5c0 1.1-.9 2-2 2s-2-.9-2-2v-.5a.5.5 0 0 1 .5-.5h3a.5.5 0 0 1 .5.5m-3.428-1.75.037-2.081a2.091 2.091 0 0 0-.207-.942c-.269-.587-.29-1.614-.133-2.24 1.416-5.64 6.735-3.987 5.467 1.727-.135.608-.543 1.287-.79 1.658-.146.22-.265.453-.363.698l-.49 1.18z"/></svg>
