<svg xmlns="http://www.w3.org/2000/svg" width="16" height="16" fill="currentColor" viewBox="0 0 16 16"><path d="M2.319.659C3.912-.803 6.417.172 6.692 4.01c.02.272-.013.609-.075.947zm12.498 14.274L1.067 1.183a.626.626 0 0 0-.885.885l.946.946a7.316 7.316 0 0 0-.119 1.747c.027.622.312 1.36.49 1.77a3.8 3.8 0 0 1 .237.75l.309 1.474h3.503l.177-1.145 4.39 4.39H9.57a.5.5 0 0 0-.5.5v.5c0 1.1.9 2 2 2 .562 0 1.065-.241 1.426-.62l1.436 1.437a.625.625 0 1 0 .885-.884M12.41 10.75 9.517 7.857a.647.647 0 0 1-.018-.055.5.5 0 0 0-.027-.075c-.268-.587-.29-1.614-.133-2.24 1.416-5.64 6.735-3.987 5.467 1.727-.135.608-.543 1.287-.79 1.658-.146.22-.265.453-.363.698l-.49 1.18zM6 11v-.5a.5.5 0 0 0-.5-.5h-3a.5.5 0 0 0-.5.5v.5c0 1.1.9 2 2 2s2-.9 2-2"/></svg>
