<svg xmlns="http://www.w3.org/2000/svg" width="16" height="16" fill="currentColor" viewBox="0 0 16 16"><g clip-path="url(#clip0_3828_974)"><path d="M8.03 14.98a.75.75 0 0 1-.53-.22L1.31 8.59a4.407 4.407 0 0 1-.65-5.46 4.395 4.395 0 0 1 3.77-2.11h.03c1.42 0 2.71.67 3.54 1.8a4.418 4.418 0 0 1 3.54-1.8h.03c1.55 0 2.96.79 3.78 2.11 1.08 1.75.82 4-.64 5.46l-6.15 6.17a.75.75 0 0 1-.53.22M4.44 2.52c-1.03 0-1.96.52-2.5 1.39-.72 1.16-.54 2.65.43 3.61l5.66 5.64 5.62-5.64c.96-.97 1.14-2.45.42-3.61-.54-.88-1.49-1.38-2.52-1.4-1.03 0-1.97.54-2.5 1.42l-.41.68a.751.751 0 0 1-1.28 0l-.41-.68a2.912 2.912 0 0 0-2.5-1.42h-.02z"/></g></svg>
