<svg xmlns="http://www.w3.org/2000/svg" width="12" height="12" fill="currentColor" viewBox="0 0 12 12"><g clip-path="url(#clip0_3829_1103)"><path d="M6.02 11.24a.62.62 0 0 1-.44-.18L.99 6.49A3.347 3.347 0 0 1 .5 2.35c.62-1 1.7-1.57 2.88-1.59 1.04 0 2 .48 2.62 1.29C6.63 1.24 7.58.77 8.62.76h.02c1.17 0 2.24.6 2.86 1.6.82 1.33.62 3.02-.48 4.13l-4.56 4.57a.62.62 0 0 1-.44.18M3.36 2.01c-.74 0-1.4.37-1.79 1-.51.83-.39 1.9.31 2.59l4.15 4.13 4.12-4.13c.69-.69.81-1.76.3-2.59-.39-.63-1.07-1.03-1.8-1-.74 0-1.41.39-1.79 1.02l-.3.5c-.23.38-.85.38-1.07 0l-.3-.5A2.064 2.064 0 0 0 3.4 2.01h-.01z"/></g></svg>
