<svg xmlns="http://www.w3.org/2000/svg" width="20" height="20" fill="currentColor" viewBox="0 0 20 20"><g clip-path="url(#clip0_3829_1042)"><path d="M10.04 18.72c-.22 0-.45-.08-.62-.26l-7.8-7.77a5.506 5.506 0 0 1-.8-6.79c1.02-1.65 2.77-2.61 4.72-2.62 1.8 0 3.43.87 4.46 2.31a5.483 5.483 0 0 1 4.46-2.31c1.93-.02 3.71.97 4.73 2.62a5.491 5.491 0 0 1-.79 6.78l-7.74 7.77c-.17.17-.4.26-.62.26zM5.51 3.03c-1.32 0-2.51.67-3.2 1.79-.92 1.49-.69 3.4.55 4.63l7.17 7.15 7.12-7.15a3.752 3.752 0 0 0 .54-4.63C17 3.69 15.8 3 14.46 3.03c-1.33 0-2.52.69-3.21 1.83l-.51.85c-.32.53-1.18.53-1.5 0l-.52-.86a3.7 3.7 0 0 0-3.2-1.82H5.5z"/></g></svg>
