<svg xmlns="http://www.w3.org/2000/svg" width="41" height="40" fill="currentColor" viewBox="0 0 41 40"><g clip-path="url(#clip0_4056_1173)"><path d="M20.07 37.38c-.36 0-.71-.14-.97-.4L3.2 21.12A10.778 10.778 0 0 1 1.62 7.77c2-3.25 5.47-5.17 9.28-5.15 3.73.02 7.12 1.9 9.1 5.05 1.99-3.14 5.37-5.02 9.1-5.04h.06c3.79 0 7.24 1.93 9.23 5.16 2.64 4.29 2 9.77-1.56 13.34l-15.8 15.85c-.26.26-.61.4-.97.4zM10.84 5.37c-2.83 0-5.4 1.44-6.88 3.85a8.052 8.052 0 0 0 1.18 9.96l14.93 14.89L34.9 19.19a8.078 8.078 0 0 0 1.16-9.96c-1.5-2.43-4.04-3.88-6.94-3.85a8.038 8.038 0 0 0-6.89 3.93l-1.04 1.74c-.5.83-1.86.83-2.36 0L17.78 9.3a8.007 8.007 0 0 0-6.89-3.92h-.05z"/></g></svg>
