<svg xmlns="http://www.w3.org/2000/svg" width="16" height="16" fill="currentColor" viewBox="0 0 16 16"><path d="M7.625 1.75A6.257 6.257 0 0 1 13.875 8a6.257 6.257 0 0 1-6.25 6.25A6.257 6.257 0 0 1 1.375 8a6.257 6.257 0 0 1 6.25-6.25m0-1.25a7.5 7.5 0 1 0 0 15 7.5 7.5 0 0 0 0-15m0 9.209A.625.625 0 0 1 7 9.084v-.767c0-.527.37-.987.879-1.092.577-.12.996-.635.996-1.225a1.252 1.252 0 0 0-2.432-.409.626.626 0 0 1-1.181-.408A2.5 2.5 0 1 1 8.25 8.421v.663c0 .345-.28.625-.625.625M7 11.75l.25.25H8l.25-.25V11L8 10.75h-.75L7 11z"/></svg>
