<svg xmlns="http://www.w3.org/2000/svg" width="20" height="20" fill="currentColor" viewBox="0 0 20 20"><path d="M17.75 10c0-4.411-3.589-8-8-8s-8 3.589-8 8 3.589 8 8 8 8-3.589 8-8M.25 10A9.5 9.5 0 0 1 9.75.5a9.5 9.5 0 0 1 9.5 9.5 9.5 9.5 0 0 1-9.5 9.5A9.5 9.5 0 0 1 .25 10m9.5 2a.75.75 0 0 1-.75-.75v-.959c0-.645.452-1.206 1.074-1.336a1.6 1.6 0 0 0 1.27-1.561 1.596 1.596 0 0 0-3.101-.522.75.75 0 1 1-1.418-.49A3.097 3.097 0 0 1 9.75 4.3a3.098 3.098 0 0 1 3.094 3.094 3.107 3.107 0 0 1-2.344 3.002v.854a.75.75 0 0 1-.75.75m.75 2.7-.3.3h-.9l-.3-.3v-.9l.3-.3h.9l.3.3z"/></svg>
