<svg xmlns="http://www.w3.org/2000/svg" width="16" height="16" fill="currentColor" viewBox="0 0 16 16"><g clip-path="url(#clip0_3460_915)"><path d="M6.7 11.66a.75.75 0 0 0 1.06 0l6.75-6.75c.35-.34.54-.8.54-1.29s-.19-.95-.54-1.29L12.72.54c-.34-.35-.8-.54-1.29-.54s-.95.2-1.29.54L3.39 7.29c-.29.29-.29.77 0 1.06l.59.59L1 11.93h4.24l.865-.865zm.53-1.59L4.98 7.82v-.01l2.476-2.476L9.71 7.59zm3.541-3.541L13.45 3.85a.32.32 0 0 0 0-.46L11.66 1.6a.343.343 0 0 0-.23-.1s-.15.01-.23.09L8.516 4.274zM0 14h15v2H0z"/></g></svg>
