<svg xmlns="http://www.w3.org/2000/svg" width="20" height="20" fill="currentColor" viewBox="0 0 20 20"><path d="m3.033 1.377-.228 1.062a.48.48 0 0 1-.366.367l-1.062.228c-.503.108-.503.825 0 .933l1.062.228a.477.477 0 0 1 .366.366l.229 1.062c.108.503.825.503.933 0l.228-1.062a.477.477 0 0 1 .366-.366l1.062-.228c.503-.108.503-.825 0-.933l-1.062-.228a.478.478 0 0 1-.367-.367l-.228-1.062c-.108-.503-.825-.503-.933 0M12.5 18a2 2 0 0 1-1.993-1.611l-.45-2.094a1.764 1.764 0 0 0-1.352-1.352l-2.094-.45A2 2 0 0 1 5 10.5a2 2 0 0 1 1.611-1.993l2.094-.45a1.764 1.764 0 0 0 1.352-1.352l.45-2.094A2 2 0 0 1 12.5 3a2 2 0 0 1 1.993 1.611l.45 2.094a1.765 1.765 0 0 0 1.352 1.352l2.094.45A2 2 0 0 1 20 10.5a2 2 0 0 1-1.611 1.993l-2.094.45a1.765 1.765 0 0 0-1.352 1.352l-.45 2.094A2 2 0 0 1 12.5 18m-.977-10.98a3.266 3.266 0 0 1-2.504 2.504l-2.094.45c-.395.085-.425.423-.425.526 0 .103.03.441.426.526l2.094.45a3.266 3.266 0 0 1 2.504 2.504l.45 2.094c.085.396.423.426.526.426.103 0 .441-.03.526-.426l.45-2.094a3.266 3.266 0 0 1 2.504-2.504l2.094-.45c.396-.085.426-.423.426-.526 0-.103-.03-.441-.426-.526l-2.094-.45a3.266 3.266 0 0 1-2.504-2.504l-.45-2.094c-.085-.396-.423-.426-.526-.426-.103 0-.441.03-.526.426zm-8.718 9.419.228-1.062c.108-.503.825-.503.933 0l.228 1.062a.479.479 0 0 0 .367.367l1.062.228c.503.108.503.825 0 .933l-1.062.228a.478.478 0 0 0-.367.367l-.228 1.062c-.108.503-.825.503-.933 0l-.228-1.062a.478.478 0 0 0-.367-.367l-1.062-.228c-.503-.108-.503-.825 0-.933l1.062-.228a.48.48 0 0 0 .367-.367"/></svg>
