<svg xmlns="http://www.w3.org/2000/svg" width="16" height="16" fill="currentColor" viewBox="0 0 16 16"><path d="m2.626 1.302-.182.849a.38.38 0 0 1-.293.293l-.849.182c-.402.087-.402.661 0 .747l.849.183a.38.38 0 0 1 .293.293l.182.849c.087.402.661.402.747 0l.183-.849a.38.38 0 0 1 .293-.293l.848-.183c.402-.087.402-.661 0-.747l-.849-.182a.381.381 0 0 1-.293-.293l-.182-.849c-.087-.402-.661-.402-.747 0M10 14a1.62 1.62 0 0 1-1.615-1.305l-.357-1.667a1.377 1.377 0 0 0-1.056-1.055l-1.667-.357A1.622 1.622 0 0 1 4 8a1.62 1.62 0 0 1 1.305-1.615l1.667-.357a1.38 1.38 0 0 0 1.056-1.056l.358-1.667A1.618 1.618 0 0 1 10 2a1.62 1.62 0 0 1 1.615 1.305l.357 1.667c.114.528.528.942 1.056 1.055l1.667.357A1.622 1.622 0 0 1 16 8a1.62 1.62 0 0 1-1.305 1.615l-1.667.357a1.379 1.379 0 0 0-1.056 1.057l-.358 1.666A1.619 1.619 0 0 1 10 14m0-10.75c-.098 0-.331.03-.392.316L9.25 5.234A2.63 2.63 0 0 1 7.234 7.25l-1.667.357c-.286.062-.317.295-.317.393 0 .098.031.331.317.393l1.667.357a2.63 2.63 0 0 1 2.016 2.016l.358 1.668c.061.286.294.316.392.316.098 0 .331-.03.392-.316l.358-1.667a2.63 2.63 0 0 1 2.016-2.017l1.667-.357c.286-.062.317-.295.317-.393 0-.098-.031-.331-.317-.393l-1.667-.357a2.63 2.63 0 0 1-2.016-2.016l-.358-1.668c-.061-.286-.294-.316-.392-.316m-7.556 8.901.182-.849c.086-.402.66-.402.747 0l.182.849a.381.381 0 0 0 .293.293l.849.182c.402.086.402.66 0 .747l-.849.182a.38.38 0 0 0-.293.293l-.182.849c-.086.402-.66.402-.747 0l-.182-.849a.381.381 0 0 0-.293-.293l-.849-.182c-.402-.086-.402-.66 0-.747l.849-.182a.38.38 0 0 0 .293-.293"/></svg>
