<svg xmlns="http://www.w3.org/2000/svg" width="20" height="20" fill="currentColor" viewBox="0 0 20 20"><path d="M19.302 8.872 11.839.769c-.943-1.025-2.734-1.025-3.678 0L.698 8.872a.75.75 0 0 0 1.103 1.016L2 9.672V16.5C2 17.879 3.122 19 4.5 19h11c1.378 0 2.5-1.121 2.5-2.5V9.672l.198.215a.746.746 0 0 0 1.06.044.75.75 0 0 0 .044-1.059M11.5 17.5h-3v-5.4l.6-.6h1.8l.6.6zm5-.8-.8.8H13v-5c0-1.379-1.122-2.5-2.5-2.5h-1A2.503 2.503 0 0 0 7 12.5v5H4.3l-.8-.8V8.043l5.765-6.259a1.023 1.023 0 0 1 1.471 0l5.765 6.259V16.7z"/></svg>
