<svg xmlns="http://www.w3.org/2000/svg" width="16" height="16" fill="currentColor" viewBox="0 0 16 16"><path d="M15.817 14.933 1.067.183a.626.626 0 0 0-.885.885l1.046 1.046A1.945 1.945 0 0 0 1 3v10a2 2 0 0 0 2 2h10c.323 0 .618-.092.886-.229l1.046 1.046a.627.627 0 0 0 1.02-.681.626.626 0 0 0-.135-.203M2.85 13.75l-.6-.6V3.135L6.236 7.12 4.218 9.15A.749.749 0 0 0 4 9.679V11a1 1 0 0 0 1 1h6.115l1.75 1.75zm10.3-11.5.6.6v8.245l1.25 1.25V3a2 2 0 0 0-2-2H3.655l1.25 1.25zM10.4 5h1.2l.4.4v1.2l-.4.4h-1.2l-.4-.4V5.4z"/></svg>
