<svg xmlns="http://www.w3.org/2000/svg" width="16" height="16" fill="currentColor" viewBox="0 0 16 16"><path d="M6.466 13h3.068a1.622 1.622 0 0 0 1.601-1.348l.294-1.873a5.482 5.482 0 0 0 .041-8.549C10.18.181 8.488-.224 6.828.119 4.685.566 2.983 2.322 2.592 4.488c-.366 2.027.374 4.005 1.933 5.208l.34 1.956A1.62 1.62 0 0 0 6.466 13m3.778-3.519-.341 1.958-.37.311H6.466l-.37-.312-.34-1.956a1.113 1.113 0 0 0-.404-.678 4.214 4.214 0 0 1-1.53-4.093c.301-1.671 1.611-3.024 3.259-3.366.303-.064.607-.094.907-.094a4.247 4.247 0 0 1 4.261 4.248 4.227 4.227 0 0 1-1.603 3.306 1.113 1.113 0 0 0-.402.676m-5.06 6.336a.625.625 0 0 0 .441.183h4.75a.624.624 0 1 0 0-1.25h-4.75a.625.625 0 0 0-.442 1.067"/></svg>
