<svg xmlns="http://www.w3.org/2000/svg" width="16" height="16" fill="currentColor" viewBox="0 0 16 16"><path d="M8 1.25c3.171 0 5.75 2.528 5.75 5.634 0 .986-.739 2.443-2.057 4.151l.891.891C13.906 10.237 15 8.387 15 6.884 15 3.082 11.866 0 8 0 5.97 0 4.148.855 2.87 2.212l.885.885A5.784 5.784 0 0 1 8 1.25m-6.933.933a.626.626 0 0 0-.885.885l1.316 1.316A6.694 6.694 0 0 0 1 6.884c0 2.717 3.575 6.574 5.615 8.553a1.985 1.985 0 0 0 2.77 0 40.831 40.831 0 0 0 1.563-1.605l1.985 1.985a.622.622 0 0 0 .884 0 .628.628 0 0 0 0-.885zM8.514 14.54a.746.746 0 0 1-.213.145h-.602a.746.746 0 0 1-.213-.145C4.207 11.359 2.25 8.497 2.25 6.884c0-.53.08-1.042.222-1.528l7.588 7.588a37.67 37.67 0 0 1-1.546 1.596M8 5.25c-.57 0-1.072.278-1.392.701l-.884-.885a2.98 2.98 0 0 1 4.397-.187 2.976 2.976 0 0 1-.188 4.397l-.884-.884c.423-.32.701-.822.701-1.392 0-.965-.785-1.75-1.75-1.75"/></svg>
