<svg xmlns="http://www.w3.org/2000/svg" width="16" height="16" fill="currentColor" viewBox="0 0 16 16"><path d="M6.196 1.933a2.744 2.744 0 0 0-.909 1.702L4.263 2.611C4.83 1.091 6.284 0 8 0c2.206 0 4 1.794 4 4v3a2 2 0 0 1 2 2v3.348l-1.25-1.25V8.85l-.6-.6H9.902L8.652 7h2.098V4A2.752 2.752 0 0 0 8 1.25a2.744 2.744 0 0 0-1.804.683M12.75 14.15v-.282l1.051.987A1.99 1.99 0 0 1 12 16H4a2 2 0 0 1-2-2V9a2 2 0 0 1 2-2V5.118l1.25 1.25V7h.632l1.25 1.25H3.85l-.6.6v5.3l.6.6h8.3z"/><path d="M14.375 16a.622.622 0 0 1-.442-.183L1.183 3.068a.626.626 0 0 1 .884-.885l12.75 12.75a.628.628 0 0 1-.203 1.02.623.623 0 0 1-.239.047"/></svg>
