<svg xmlns="http://www.w3.org/2000/svg" width="16" height="16" fill="currentColor" viewBox="0 0 16 16"><path d="M1.85 14.75h3.322c-.093.425-.026.87.187 1.25H2a2 2 0 0 1-2-2V9a2 2 0 0 1 2-2V4c0-2.206 1.794-4 4-4s4 1.794 4 4v3l.013.002a1.756 1.756 0 0 0-.95.784l-.266.464H1.85l-.6.6v5.3zM6 1.25A2.752 2.752 0 0 0 3.25 4v3h5.5V4A2.752 2.752 0 0 0 6 1.25m5.66 7.243 3.311 5.773c.445.775-.127 1.734-1.034 1.734H7.314c-.908 0-1.48-.959-1.034-1.734l3.311-5.773c.454-.791 1.615-.791 2.069 0m-.593 4.323a.624.624 0 0 0 .183-.442v-1.747a.624.624 0 1 0-1.25 0v1.747a.624.624 0 0 0 1.067.442m-.884 2a.624.624 0 1 0 .884-.882.624.624 0 0 0-.884.883"/></svg>
