<svg xmlns="http://www.w3.org/2000/svg" width="12" height="12" fill="currentColor" viewBox="0 0 12 12"><path d="M6 11.5a5.5 5.5 0 1 0 0-11 5.5 5.5 0 0 0 0 11"/><path d="M1.9.6c-.2-.2-.5-.2-.7 0-.2.2-.2.6-.1.8l.9.8C1.1 3.2.5 4.5.5 6 .5 9 3 11.5 6 11.5c1.5 0 2.8-.6 3.8-1.5l.9.9c0 .1.2.1.3.1.1 0 .3 0 .4-.1.2-.2.2-.5 0-.7zM6 10.5c-2.5 0-4.5-2-4.5-4.5 0-1.2.5-2.3 1.2-3.1l1.5 1.5V8c0 .4.4.6.7.4L7 7.2l2 2c-.7.8-1.8 1.3-3 1.3m0-9c2.5 0 4.5 2 4.5 4.5 0 .6-.1 1.1-.3 1.6l.8.7c.3-.7.5-1.5.5-2.3C11.5 3 9 .5 6 .5c-.8 0-1.6.2-2.3.5l.8.8c.4-.2.9-.3 1.5-.3"/></svg>
