<svg xmlns="http://www.w3.org/2000/svg" width="16" height="16" fill="currentColor" viewBox="0 0 16 16"><path d="M15.817 14.933 1.067.183a.626.626 0 0 0-.885.885l5.861 5.861a2.494 2.494 0 0 0 2.029 2.029l1.176 1.176a3.178 3.178 0 0 1-.748.099 3.24 3.24 0 0 1-3.206-2.71.63.63 0 0 0-.948-.426.625.625 0 0 0-.285.633 4.468 4.468 0 0 0 3.525 3.648l.289.24v2.133h-1.75a.625.625 0 0 0 0 1.249h4.75a.625.625 0 1 0 0-1.25h-1.75v-2.133l.272-.237c.29-.058.567-.152.833-.264l4.702 4.702a.63.63 0 0 0 1.02-.204.625.625 0 0 0-.135-.681M7.25 3.5c0-.689.561-1.25 1.25-1.25s1.25.561 1.25 1.25v3c0 .177-.039.344-.106.497l.916.916A2.48 2.48 0 0 0 11 6.5v-3A2.5 2.5 0 0 0 8.5 1a2.493 2.493 0 0 0-2.486 2.366L7.25 4.602zm5.68 3.985c.02.08.022.163.008.244a4.441 4.441 0 0 1-.744 1.818l-.902-.902a3.25 3.25 0 0 0 .413-1.123.622.622 0 0 1 1.126-.26.625.625 0 0 1 .1.223"/></svg>
