<svg xmlns="http://www.w3.org/2000/svg" width="16" height="16" fill="currentColor" viewBox="0 0 16 16"><path d="M9.75 3.5c0-.689-.561-1.25-1.25-1.25s-1.25.561-1.25 1.25v3c0 .689.561 1.25 1.25 1.25s1.25-.561 1.25-1.25zM6.732 1.732A2.5 2.5 0 0 1 11 3.5v3a2.5 2.5 0 0 1-5 0v-3a2.5 2.5 0 0 1 .732-1.768M7.875 13.75v-2.133l-.29-.24A4.468 4.468 0 0 1 4.06 7.729a.625.625 0 1 1 1.233-.207 3.24 3.24 0 0 0 3.206 2.71 3.24 3.24 0 0 0 3.206-2.71.618.618 0 0 1 .72-.513.625.625 0 0 1 .513.72 4.468 4.468 0 0 1-3.541 3.651l-.272.237v2.133h1.75a.625.625 0 1 1 0 1.25h-4.75a.625.625 0 1 1 0-1.25z"/></svg>
