<svg xmlns="http://www.w3.org/2000/svg" width="16" height="16" fill="currentColor" viewBox="0 0 16 16"><path d="M15.987 3a2 2 0 0 0-2-2h-7a2 2 0 0 0-2 2v5.911a3.182 3.182 0 0 0-1.849-.048A3.1 3.1 0 0 0 .97 11.044a3.147 3.147 0 0 0 .542 2.74A3.107 3.107 0 0 0 3.987 15c.542 0 1.078-.142 1.55-.41.432-.248.7-.71.7-1.205V6h8.513v2.911a3.182 3.182 0 0 0-1.849-.048 3.098 3.098 0 0 0-2.167 2.181 3.143 3.143 0 0 0 1.636 3.638 3.136 3.136 0 0 0 2.928-.092c.433-.248.702-.71.702-1.205zm-11 10.385a.14.14 0 0 1-.071.12c-.788.449-1.855.237-2.415-.485a1.878 1.878 0 0 1-.322-1.659 1.836 1.836 0 0 1 1.807-1.359c.357 0 .701.098 1 .287v3.096zm9.763 0a.14.14 0 0 1-.072.12c-.786.449-1.855.237-2.414-.485a1.879 1.879 0 0 1-.322-1.66 1.833 1.833 0 0 1 1.28-1.289c.176-.047.353-.069.526-.069.357 0 .701.098 1 .287v3.096zm-.013-8.635h-8.5v-1.9l.6-.6h7.3l.6.6z"/></svg>
