<svg xmlns="http://www.w3.org/2000/svg" width="16" height="16" fill="currentColor" viewBox="0 0 16 16"><path d="M1.067.183a.626.626 0 0 0-.885.885l1.046 1.046A1.945 1.945 0 0 0 1 3v7a2 2 0 0 0 2 2h4l3.75 3H12v-2.115l1.932 1.932a.626.626 0 1 0 .885-.885zm9.683 13.216-3.038-2.43a1 1 0 0 0-.625-.219H2.85l-.6-.6V3.135L6.115 7h-1.24a.625.625 0 0 0 0 1.25h2.49l3.385 3.385zM13 1H3.654l1.25 1.25h8.247l.6.6v7.3l-.473.473.948.948c.467-.366.774-.93.774-1.571V3a2 2 0 0 0-2-2m-1.875 4.25H7.904L6.654 4h4.471a.625.625 0 1 1 0 1.25"/></svg>
