<svg xmlns="http://www.w3.org/2000/svg" width="16" height="16" fill="currentColor" viewBox="0 0 16 16"><g clip-path="url(#clip0_3547_876)"><path d="M5.778 7.111a3.111 3.111 0 1 0 0-6.222 3.111 3.111 0 0 0 0 6.222M13.556 9.682a2.558 2.558 0 0 0 1.801-3.139 2.49 2.49 0 0 0-1.789-1.79 2.717 2.717 0 0 0-.68-.086 2.549 2.549 0 0 0-.667 5.012v5.432h1.335v-.889h1.555v-1.778h-1.555zm-1.89-2.46c0-.674.55-1.222 1.223-1.222.113 0 .23.015.346.045.407.105.725.423.83.831.14.538-.071.916-.209 1.094a1.224 1.224 0 0 1-2.19-.748"/><path d="M9.364 8.222a3.677 3.677 0 0 0 1.747 2.196v4.026H0v-2.666a3.556 3.556 0 0 1 3.556-3.556z"/></g></svg>
