<svg xmlns="http://www.w3.org/2000/svg" width="16" height="16" fill="currentColor" viewBox="0 0 16 16"><path d="M13.75 5.5c0-.689-.561-1.25-1.25-1.25s-1.25.561-1.25 1.25.561 1.25 1.25 1.25 1.25-.561 1.25-1.25m-3.018-1.768a2.5 2.5 0 1 1 3.536 3.536 2.5 2.5 0 0 1-3.536-3.536M9.041 5.064C9.021 5.207 9 5.35 9 5.5c.001.252.03.504.085.75h-7.46a.625.625 0 0 1 0-1.25H9.05zM3.5 9.25c.689 0 1.25.561 1.25 1.25s-.561 1.25-1.25 1.25-1.25-.561-1.25-1.25.561-1.25 1.25-1.25M3.5 8a2.5 2.5 0 1 0 0 5 2.5 2.5 0 0 0 0-5m3.45 2h7.425a.624.624 0 1 1 0 1.25h-7.46c.053-.242.085-.492.085-.75 0-.149-.02-.293-.041-.436z"/></svg>
