<svg xmlns="http://www.w3.org/2000/svg" width="16" height="16" fill="currentColor" viewBox="0 0 16 16"><path d="M8.125 15a.625.625 0 1 0 0-1.25H1.85l-.6-.6v-9.3l.6-.6h10.3l.6.6v4.275a.625.625 0 1 0 1.25 0V4a2 2 0 0 0-2-2H2a2 2 0 0 0-2 2v9a2 2 0 0 0 2 2zm3.161-2.83-.75.75a.314.314 0 0 1-.536-.223v-2.509l.189-.188h2.509c.28 0 .42.338.222.536l-.75.75 2.652 2.652a.618.618 0 0 1 .11.718.495.495 0 0 1-.276.276.618.618 0 0 1-.718-.11zM4 5h4a1 1 0 0 1 1 1v3a1 1 0 0 1-1 1H4a1 1 0 0 1-1-1V6a1 1 0 0 1 1-1"/></svg>
