<svg xmlns="http://www.w3.org/2000/svg" width="16" height="16" fill="currentColor" viewBox="0 0 16 16"><path d="M8.125 15a.625.625 0 1 0 0-1.25H1.85l-.6-.6v-9.3l.6-.6h10.3l.6.6v4.275a.625.625 0 1 0 1.25 0V4a2 2 0 0 0-2-2H2a2 2 0 0 0-2 2v9a2 2 0 0 0 2 2zM15 10h-4a1 1 0 0 0-1 1v3a1 1 0 0 0 1 1h4a1 1 0 0 0 1-1v-3a1 1 0 0 0-1-1M7.464 7.08l-.75.75-2.652-2.652a.618.618 0 0 0-.718-.11.496.496 0 0 0-.276.276.618.618 0 0 0 .11.718L5.83 8.714l-.75.75a.314.314 0 0 0 .222.536h2.509L8 9.812V7.303a.314.314 0 0 0-.536-.223"/></svg>
