<svg xmlns="http://www.w3.org/2000/svg" width="16" height="16" fill="currentColor" viewBox="0 0 16 16"><path d="m15.817 13.933-4.092-4.092 2.057-2.057a1.622 1.622 0 0 0 .352-1.771 1.62 1.62 0 0 0-1.501-1.003h-1.851L7.607 1.833c-.021-.021-.049-.03-.072-.048l.719-.719A.625.625 0 1 0 7.37.182L1.183 6.37a.625.625 0 0 0 .884.884l.719-.719c.017.023.026.05.047.072L6.01 9.783v1.85c0 .66.394 1.249 1.003 1.501a1.623 1.623 0 0 0 1.771-.352l2.057-2.057 4.092 4.092a.625.625 0 1 0 .884-.884M6.944 2.94l3.079 3.078.623.242h1.987c.226 0 .317.162.347.231a.364.364 0 0 1-.082.408L7.9 11.897a.362.362 0 0 1-.408.082.363.363 0 0 1-.231-.347V9.64l-.25-.625L3.94 5.944v-.567l2.51-2.509z"/></svg>
