<svg xmlns="http://www.w3.org/2000/svg" width="16" height="16" fill="currentColor" viewBox="0 0 16 16"><g clip-path="url(#clip0_1202_2704)"><path d="M3.196 13.097A7.455 7.455 0 0 1 1 7.793a.625.625 0 0 1 1.25 0c0 1.669.65 3.239 1.831 4.419a6.207 6.207 0 0 0 4.419 1.83 6.257 6.257 0 0 0 6.25-6.25 6.257 6.257 0 0 0-6.25-6.25 6.211 6.211 0 0 0-2.978.773L6.647 3.44a.5.5 0 0 1-.354.853h-3.52L2.5 4.02V.5a.5.5 0 0 1 .854-.353l1.251 1.25A7.451 7.451 0 0 1 8.5.294c4.136 0 7.5 3.364 7.5 7.5s-3.364 7.5-7.5 7.5a7.455 7.455 0 0 1-5.304-2.196"/><path d="M8.518 11.08c1.296 0 2.177-.844 2.174-2.02.003-1.114-.776-1.915-1.824-1.915-.511 0-.952.213-1.156.5h-.034l.15-1.457h2.543V5.182H6.814L6.538 8.25l1.094.196c.18-.241.526-.392.87-.392.585.003 1.005.426 1.005 1.037 0 .605-.412 1.023-.989 1.023-.488 0-.883-.307-.911-.759H6.413c.023 1.006.9 1.724 2.105 1.724"/></g></svg>
