<svg xmlns="http://www.w3.org/2000/svg" width="16" height="16" fill="currentColor" viewBox="0 0 16 16"><g clip-path="url(#clip0_1202_2705)"><path d="M13.804 13.097A7.455 7.455 0 0 0 16 7.793a.625.625 0 1 0-1.25 0c0 1.669-.65 3.239-1.831 4.419a6.207 6.207 0 0 1-4.419 1.83 6.257 6.257 0 0 1-6.25-6.25 6.257 6.257 0 0 1 6.25-6.25c1.051 0 2.066.276 2.978.773L10.353 3.44a.5.5 0 0 0 .354.853h3.52l.273-.273V.5a.5.5 0 0 0-.854-.353l-1.251 1.25A7.451 7.451 0 0 0 8.5.294C4.364.293 1 3.657 1 7.793s3.364 7.5 7.5 7.5c2.003 0 3.887-.78 5.304-2.196"/><path d="M8.518 11.08c1.296 0 2.177-.844 2.174-2.02.003-1.114-.776-1.915-1.824-1.915-.511 0-.952.213-1.156.5h-.034l.15-1.457h2.543V5.182H6.814L6.538 8.25l1.094.196c.18-.241.526-.392.87-.392.585.003 1.005.426 1.005 1.037 0 .605-.412 1.023-.989 1.023-.488 0-.883-.307-.911-.759H6.413c.023 1.006.9 1.724 2.105 1.724"/></g></svg>
