<svg xmlns="http://www.w3.org/2000/svg" width="16" height="16" fill="currentColor" viewBox="0 0 16 16"><path d="M13.15 4.25H6.897L3.706 1.059c.003 0 .006-.002.008-.003C3.807 1.028 3.9 1 4 1h2a1 1 0 0 1 1 1v1h2V2a1 1 0 0 1 1-1h2a1 1 0 0 1 1 1v1a2 2 0 0 1 2 2v7c0 .11-.015.216-.032.321l-1.218-1.218V4.85zM2.067 1.183l12.75 12.75a.626.626 0 0 1-.884.885l-.828-.828c-.015 0-.03.003-.044.005A.448.448 0 0 1 13 14H3a2 2 0 0 1-2-2V5a1.998 1.998 0 0 1 1.26-1.855L1.182 2.068a.626.626 0 0 1 .885-.885M2.25 12.15l.6.6h9.015l-8.5-8.5H2.85l-.6.6z"/></svg>
