<svg xmlns="http://www.w3.org/2000/svg" width="16" height="16" fill="currentColor" viewBox="0 0 16 16"><path d="M13.75 4 13 3.25H3L2.25 4v3.524a5.92 5.92 0 0 0 .465 2.248c.293.682.71 1.303 1.23 1.832.53.514 1.15.922 1.832 1.204a5.424 5.424 0 0 0 2.248.466 5.898 5.898 0 0 0 2.248-.466 5.212 5.212 0 0 0 1.789-1.212 5.862 5.862 0 0 0 1.222-1.85 5.424 5.424 0 0 0 .466-2.248zM3 2h10a2 2 0 0 1 2 2v3.498a6.624 6.624 0 0 1-.559 2.724 7.141 7.141 0 0 1-1.476 2.24 6.434 6.434 0 0 1-2.215 1.502 7.15 7.15 0 0 1-2.724.56 6.602 6.602 0 0 1-2.724-.56 7.14 7.14 0 0 1-2.24-1.476c-.637-.636-1.12-1.375-1.502-2.24A7.15 7.15 0 0 1 1 7.524V4a2 2 0 0 1 2-2m1.182 4.523L7.66 10h.68l3.478-3.477a.626.626 0 0 0-.885-.885L8 8.572 5.067 5.638a.626.626 0 0 0-.885.885"/></svg>
