<svg xmlns="http://www.w3.org/2000/svg" width="16" height="16" fill="currentColor" viewBox="0 0 16 16"><path d="M15.931 5.48a1.633 1.633 0 0 0-1.269-1.675 5.94 5.94 0 0 0-5.361 1.443l-.246.23a1.552 1.552 0 0 1-2.114-.002L6.7 5.252a5.938 5.938 0 0 0-5.365-1.446h-.001a1.633 1.633 0 0 0-1.27 1.67v.003c-.197.78.108 3.66.28 4.113.347 1.83 1.842 3.206 3.635 3.206.895 0 1.706-.357 2.347-.929l.391-.334a1.95 1.95 0 0 1 2.512-.02l.585.485v-.003c.617.497 1.375.801 2.203.801 1.792 0 3.288-1.376 3.635-3.206.172-.453.488-3.32.279-4.113M6.232 8.551c-.427.483-1.088.793-1.832.793s-1.405-.31-1.832-.792a.693.693 0 0 1 0-.905c.427-.483 1.088-.793 1.832-.793s1.405.31 1.832.792a.693.693 0 0 1 0 .905m7.2 0c-.427.482-1.088.792-1.832.792s-1.405-.31-1.832-.792a.693.693 0 0 1 0-.905c.427-.482 1.088-.792 1.832-.792s1.405.31 1.832.792a.693.693 0 0 1 0 .905"/></svg>
