<svg xmlns="http://www.w3.org/2000/svg" width="16" height="16" fill="currentColor" viewBox="0 0 16 16"><path d="M7.378 16h1.25a1.638 1.638 0 0 0 1.559-1.162l.425-1.437c.249-.125.5-.276.759-.458l1.447.36a1.63 1.63 0 0 0 1.8-.764l.625-1.083a1.635 1.635 0 0 0-.229-1.931l-1.045-1.101C13.986 8.285 14 8.145 14 8c0-.153-.014-.302-.032-.45l1.035-1.07c.5-.519.597-1.316.237-1.941l-.625-1.083a1.635 1.635 0 0 0-1.786-.768l-1.478.355a5.876 5.876 0 0 0-.739-.444l-.425-1.436A1.638 1.638 0 0 0 8.628 0h-1.25a1.63 1.63 0 0 0-1.561 1.177l-.406 1.414a5.862 5.862 0 0 0-.761.452l-1.477-.355a1.636 1.636 0 0 0-1.787.768L.761 4.539a1.63 1.63 0 0 0 .238 1.94L2.032 7.55A3.709 3.709 0 0 0 2 8c.001.142.012.284.032.424L.987 9.525a1.633 1.633 0 0 0-.229 1.931l.625 1.082a1.632 1.632 0 0 0 1.799.765l1.448-.36c.248.175.508.33.78.466l.406 1.414A1.632 1.632 0 0 0 7.378 16M5.14 11.768l-.528-.109-1.733.431a.38.38 0 0 1-.415-.176l-.625-1.083a.38.38 0 0 1 .053-.446l1.25-1.317.167-.505-.022-.174a13.825 13.825 0 0 0-.007-.049c-.015-.112-.03-.224-.03-.34.003-.146.017-.292.042-.436l.021-.15-.171-.514-1.244-1.289a.375.375 0 0 1-.055-.447l.625-1.083a.383.383 0 0 1 .413-.177l1.757.422.521-.109a4.71 4.71 0 0 1 1.013-.6l.36-.405.486-1.691a.377.377 0 0 1 .36-.271h1.25a.373.373 0 0 1 .36.269l.506 1.707.356.398a4.7 4.7 0 0 1 .991.594l.521.108 1.758-.422a.38.38 0 0 1 .412.177l.625 1.082a.378.378 0 0 1-.055.448L12.858 6.9l-.171.513.021.15c.021.144.042.288.042.437 0 .133-.02.261-.041.388l-.022.174.167.505 1.25 1.317a.377.377 0 0 1 .053.446l-.625 1.083a.378.378 0 0 1-.416.176l-1.731-.431-.529.109a4.646 4.646 0 0 1-1.01.608l-.355.398-.506 1.707a.37.37 0 0 1-.359.269h-1.25a.376.376 0 0 1-.36-.271l-.485-1.691-.359-.404a4.72 4.72 0 0 1-1.032-.615M9.75 8c0-.965-.785-1.75-1.75-1.75S6.25 7.035 6.25 8 7.035 9.75 8 9.75 9.75 8.965 9.75 8M5.879 5.879a3 3 0 1 1 4.242 4.242A3 3 0 0 1 5.88 5.88"/></svg>
