<svg xmlns="http://www.w3.org/2000/svg" width="20" height="20" fill="currentColor" viewBox="0 0 20 20"><path d="M9.217 20h1.574a2.01 2.01 0 0 0 1.917-1.433l.535-1.805a7.55 7.55 0 0 0 1.009-.593l1.801.448a2.005 2.005 0 0 0 2.215-.94l.787-1.363a2.01 2.01 0 0 0-.281-2.376l-1.299-1.37c.034-.389.032-.78-.003-1.168l1.286-1.334a2.009 2.009 0 0 0 .293-2.389l-.787-1.363a2.02 2.02 0 0 0-2.199-.945l-1.84.442a7.417 7.417 0 0 0-.981-.574l-.535-1.805A2.013 2.013 0 0 0 10.791 0H9.217a2.011 2.011 0 0 0-1.923 1.449l-.51 1.777a7.453 7.453 0 0 0-1.01.586l-1.84-.442a2.009 2.009 0 0 0-2.199.945L.948 5.678a2.008 2.008 0 0 0 .293 2.389L2.528 9.4c-.035.388-.036.78-.003 1.168l-1.299 1.37a2.012 2.012 0 0 0-.281 2.377l.787 1.364a2.01 2.01 0 0 0 2.215.94l1.801-.448c.33.228.676.43 1.037.604l.51 1.777A2.009 2.009 0 0 0 9.217 20m-2.855-5.238-.637-.132-2.14.533a.503.503 0 0 1-.554-.235l-.787-1.363a.503.503 0 0 1 .07-.594l1.537-1.621.2-.608A6.042 6.042 0 0 1 4 10c.002-.258.02-.515.055-.771l-.204-.617L2.32 7.025a.503.503 0 0 1-.073-.597l.787-1.363a.504.504 0 0 1 .55-.236l2.175.522.628-.133a5.972 5.972 0 0 1 1.31-.759l.433-.485.606-2.112a.503.503 0 0 1 .481-.362h1.574a.503.503 0 0 1 .48.359l.632 2.133.427.478c.457.196.888.448 1.283.75l.627.131 2.175-.522a.503.503 0 0 1 .55.236l.787 1.364a.5.5 0 0 1-.073.596l-1.531 1.587-.204.617c.035.256.054.513.056.771 0 .252-.021.499-.052.74l.201.608 1.537 1.621a.503.503 0 0 1 .07.594l-.787 1.363a.504.504 0 0 1-.554.236l-2.141-.533-.637.132a5.97 5.97 0 0 1-1.307.768l-.428.478-.632 2.134a.502.502 0 0 1-.479.358H9.217a.503.503 0 0 1-.481-.362l-.606-2.112-.432-.485a6.015 6.015 0 0 1-1.336-.778M6.5 10c0 1.93 1.57 3.5 3.5 3.5s3.5-1.57 3.5-3.5-1.57-3.5-3.5-3.5S6.5 8.07 6.5 10M8 10c0-1.103.897-2 2-2s2 .897 2 2-.897 2-2 2-2-.897-2-2"/></svg>
