<svg xmlns="http://www.w3.org/2000/svg" width="16" height="16" fill="currentColor" viewBox="0 0 16 16"><path d="M12.596.466a.5.5 0 0 1 .256.137l2.823 2.823v.425l-2.823 2.823a.5.5 0 0 1-.854-.354V4.25h-1.373A3.379 3.379 0 0 0 7.25 7.625v2.75a.625.625 0 1 1-1.25 0v-2.75A4.63 4.63 0 0 1 10.625 3h1.373V.957a.5.5 0 0 1 .598-.491m.22 8.717a.625.625 0 0 1 .184.442V13a2 2 0 0 1-2 2H2a2 2 0 0 1-2-2V4a2 2 0 0 1 2-2h3.375a.625.625 0 1 1 0 1.25H1.85l-.6.6v9.3l.6.6h9.3l.6-.6V9.625a.625.625 0 0 1 1.067-.442"/></svg>
