<svg xmlns="http://www.w3.org/2000/svg" width="20" height="20" fill="currentColor" viewBox="0 0 20 20"><path d="m11.431.36 6.102 3.323a3.052 3.052 0 0 1 1.558 3.254l-.705 3.792c-.268 1.454-.758 2.728-1.45 3.79l-1.096-1.096c.496-.843.861-1.833 1.071-2.968l.753-4.087-.61-1.24-6.559-3.572h-.979L5.907 3.49 4.795 2.378 8.564.364A3.029 3.029 0 0 1 11.431.36m-10.144.697a.75.75 0 0 1 .243.163l17 17a.75.75 0 0 1-1.06 1.061l-2.419-2.419c-1.107 1.145-2.364 2.11-3.696 2.805A2.944 2.944 0 0 1 10 20c-.466 0-.934-.115-1.353-.331-2.151-1.122-4.122-2.933-5.552-5.102-.709-1.074-1.207-2.369-1.478-3.85L.909 6.872a3.054 3.054 0 0 1 1.16-2.991l-1.6-1.6a.75.75 0 0 1 .818-1.224m8.052 17.28h1.324c1.198-.626 2.332-1.496 3.33-2.533L3.154 4.965l-.31.166-.506 1.237.754 4.077c.235 1.282.658 2.391 1.255 3.295 1.292 1.96 3.065 3.592 4.992 4.597"/></svg>
