<svg xmlns="http://www.w3.org/2000/svg" width="16" height="16" fill="currentColor" viewBox="0 0 16 16"><path d="M8 2c3.493 0 6.675 2.244 8 5.595v.81C14.675 11.756 11.493 14 8 14c-3.493 0-6.675-2.244-8-5.596v-.809C1.325 4.244 4.507 2 8 2M1.17 8c1.161 2.894 3.817 4.75 6.83 4.75s5.669-1.856 6.83-4.75C13.669 5.106 11.013 3.25 8 3.25S2.331 5.106 1.17 8M5 8c0 1.654 1.346 3 3 3s3-1.346 3-3-1.346-3-3-3-3 1.346-3 3m1.25 0c0-.965.785-1.75 1.75-1.75S9.75 7.035 9.75 8 8.965 9.75 8 9.75 6.25 8.965 6.25 8"/></svg>
