<svg xmlns="http://www.w3.org/2000/svg" width="16" height="16" fill="currentColor" viewBox="0 0 16 16"><path d="M2.628 1.011c.163-.002.32.06.439.172l12.75 12.749a.626.626 0 0 1-.884.886l-2.273-2.273C11.294 13.465 9.687 14 8 14c-3.493 0-6.675-2.244-8-5.596v-.809a8.885 8.885 0 0 1 3.488-4.221L2.182 2.068a.626.626 0 0 1 .446-1.057m6.661 8.163L6.826 6.711A1.74 1.74 0 0 0 6.25 8c0 .965.785 1.75 1.75 1.75.512 0 .969-.224 1.289-.576M1.17 8c1.161 2.894 3.817 4.75 6.83 4.75a7.117 7.117 0 0 0 3.781-1.085l-1.613-1.613A2.958 2.958 0 0 1 8 11c-1.654 0-3-1.346-3-3a2.958 2.958 0 0 1 .948-2.168L4.371 4.255A7.573 7.573 0 0 0 1.17 8m4.823-5.725A8.156 8.156 0 0 1 8 2c3.493 0 6.675 2.244 8 5.595v.809a9.017 9.017 0 0 1-1.448 2.43l-.863-.863A7.928 7.928 0 0 0 14.83 8C13.669 5.106 11.013 3.25 8 3.25c-.32.003-.64.028-.958.074z"/></svg>
