<svg xmlns="http://www.w3.org/2000/svg" width="20" height="21" fill="currentColor" viewBox="0 0 20 21"><path d="M10 1.5v2.2c-4 0-7.3 3.3-7.3 7.2 0 1.8.6 3.5 1.7 4.8.2.2.4.3.6.3.2 0 .3 0 .5-.1.3-.3.4-.8.1-1.1-.9-1.1-1.4-2.4-1.4-3.8 0-3.2 2.6-5.8 5.8-5.8v2.2c0 .4.5.6.8.3l2.9-2.8V4l-2.8-2.9c-.4-.3-.9 0-.9.4m0 15.3v-2.2c0-.4-.5-.6-.8-.3l-2.9 2.8v.9l2.8 2.8c.4.3.9 0 .9-.4v-2.2c4 0 7.3-3.3 7.3-7.3 0-1.7-.6-3.4-1.7-4.7-.3-.3-.8-.4-1.1-.1-.3.3-.4.8-.1 1.1.9 1.1 1.4 2.4 1.4 3.8 0 3.2-2.6 5.8-5.8 5.8"/></svg>
