<svg xmlns="http://www.w3.org/2000/svg" width="16" height="16" fill="currentColor" viewBox="0 0 16 16"><path d="M13.75 7V5.992l-.742-.742H12V4h1a2 2 0 0 1 2 2v1zM4.25 10v1.008l.742.742H6V13H5a2 2 0 0 1-2-2v-1zM13 11.75h-1V13h1a2 2 0 0 0 2-2v-1h-1.25v1.008l-.742.742zM1 3a2 2 0 0 1 2-2h6a2 2 0 0 1 2 2v3a2 2 0 0 1-2 2H3a2 2 0 0 1-2-2zm6-.75H3a.75.75 0 0 0-.75.75v3c0 .414.336.75.75.75h4zM9 3a.75.75 0 0 1 .75.75v1.5a.75.75 0 0 1-1.5 0v-1.5A.75.75 0 0 1 9 3"/><path d="M3 11V9h1.25v2c0 .414.336.75.75.75h8a.75.75 0 0 0 .75-.75V6a.75.75 0 0 0-.75-.75h-1V4h1a2 2 0 0 1 2 2v5a2 2 0 0 1-2 2h1.5a1.5 1.5 0 0 1 0 3h-11a1.5 1.5 0 0 1 0-3H5a2 2 0 0 1-2-2m4.5 2.75a.75.75 0 0 1 .75-.75h1.5a.75.75 0 0 1 0 1.5h-1.5a.75.75 0 0 1-.75-.75M4 2.25H2.992l-.742.742V4H1V3a2 2 0 0 1 2-2h1zM2.25 5v1.008l.742.742H4V8H3a2 2 0 0 1-2-2V5z"/></svg>
