<svg xmlns="http://www.w3.org/2000/svg" width="16" height="16" fill="currentColor" viewBox="0 0 16 16"><path d="M5.6 3H4.4l-.366.366-.987-.987A7.48 7.48 0 0 1 6.655.627l.377.284c-.02.194-.032.39-.032.589a6.498 6.498 0 0 0 5 6.319v.78l.4.4h1.2l.4-.4v-.638a6.894 6.894 0 0 0 1.263-.207L15.5 8a7.461 7.461 0 0 1-1.879 4.953L9 8.332V7.4L8.6 7h-.932L5.634 4.966 6 4.6V3.4zM.628 2.011c.163-.002.32.06.439.172l12.75 12.749a.628.628 0 0 1 0 .885.627.627 0 0 1-.885 0l-1.273-1.273A7.5 7.5 0 0 1 .5 8c0-1.281.329-2.54.957-3.657L.182 3.068a.626.626 0 0 1 .446-1.057M2 8.6l.4.4h1.2l.4-.4V7.4L3.6 7H2.4l-.4.4zM5.6 13l.4-.4v-1.2l-.4-.4H4.4l-.4.4v1.2l.4.4z"/></svg>
