<svg xmlns="http://www.w3.org/2000/svg" width="16" height="16" fill="currentColor" viewBox="0 0 16 16"><g clip-path="url(#clip0_1402_26330)"><path d="M14.466 15.059H16l-3.413-8.04a.707.707 0 0 0-.65-.43h-.78a.704.704 0 0 0-.649.43l-1.74 4.096c-.003-.002-.004-.008-.008-.01a10.164 10.164 0 0 1-3.072-2.07 11.656 11.656 0 0 0 2.39-3.939l.473-1.331h.86V2.353h-4V.94H4v1.412H0v1.412h7.052l-.306.859a10.238 10.238 0 0 1-2 3.349 10.25 10.25 0 0 1-1.54-2.797h-1.5l.162.455A11.698 11.698 0 0 0 3.73 8.975a10.189 10.189 0 0 1-2.789 1.68v1.487a11.568 11.568 0 0 0 3.73-2.126 11.587 11.587 0 0 0 3.548 2.393l-1.124 2.65h1.534l.998-2.353h3.84zm-4.24-3.765 1.321-3.111 1.32 3.111z"/></g></svg>
