<svg xmlns="http://www.w3.org/2000/svg" width="20" height="20" fill="currentColor" viewBox="0 0 20 20"><path d="M10.625 3.5a.91.91 0 0 1 .808.472l6.833 12.147a.91.91 0 0 1-.008.922.911.911 0 0 1-.8.459H3.792a.911.911 0 0 1-.8-.459.91.91 0 0 1-.008-.922L9.817 3.972a.91.91 0 0 1 .808-.472m0-1.5c-.826 0-1.651.412-2.115 1.237L1.677 15.384C.768 17.001 1.936 19 3.792 19h13.665c1.856 0 3.025-1.999 2.115-3.616L12.74 3.237A2.402 2.402 0 0 0 10.625 2m.125 5a.75.75 0 0 0-.75.75v3.5a.75.75 0 1 0 1.5 0v-3.5a.75.75 0 0 0-.75-.75M10 14.7l.3.3h.9l.3-.3v-.9l-.3-.3h-.9l-.3.3z"/></svg>
