<svg xmlns="http://www.w3.org/2000/svg" width="16" height="16" fill="currentColor" viewBox="0 0 16 16"><path d="m14.75 4.85-.6-.6H1.85l-.6.6V11l.75.75h2.93a.75.75 0 0 0 .624-.334l.574-.861A2.246 2.246 0 0 1 8 9.553c.754 0 1.454.375 1.872 1.002l.574.861a.749.749 0 0 0 .624.334h3.08l.6-.6zM2 3h12a2 2 0 0 1 2 2v6a2 2 0 0 1-2 2h-2.93a2 2 0 0 1-1.664-.891l-.574-.861A.992.992 0 0 0 8 10.803a.992.992 0 0 0-.832.445l-.574.861A1.998 1.998 0 0 1 4.93 13H2a2 2 0 0 1-2-2V5a2 2 0 0 1 2-2m1.625 4h8.75a.625.625 0 1 0 0-1.25h-8.75a.625.625 0 0 0 0 1.25"/></svg>
