<svg width="24" height="25" viewBox="0 0 24 25" fill="none" xmlns="http://www.w3.org/2000/svg">
<path d="M22.3894 8.54928C21.884 7.3336 20.8604 6.02115 20.0566 5.60633C20.7108 6.88883 21.0894 8.17534 21.2341 9.13549C21.2341 9.13738 21.2348 9.14207 21.2364 9.15484C19.9215 5.87744 17.6918 4.55589 15.8712 1.67841C15.7792 1.53291 15.6871 1.38702 15.5972 1.23324C15.5515 1.15471 15.5088 1.07446 15.4692 0.992663C15.3936 0.846623 15.3352 0.692257 15.2954 0.532695C15.2956 0.525141 15.2931 0.517756 15.2882 0.51199C15.2833 0.506224 15.2764 0.502495 15.2689 0.501534C15.2618 0.499489 15.2542 0.499489 15.2471 0.501534C15.2455 0.502114 15.2431 0.504001 15.2413 0.504679C15.2387 0.505695 15.2355 0.508018 15.2328 0.509518C15.2341 0.507776 15.2368 0.503856 15.2376 0.502937C12.3165 2.21371 11.3255 5.37847 11.2345 6.96184C10.068 7.04204 8.95271 7.47181 8.03405 8.19513C7.93787 8.11389 7.83732 8.03797 7.73284 7.96772C7.46779 7.04042 7.45653 6.05898 7.70023 5.12584C6.50565 5.66976 5.57652 6.52955 4.90103 7.28875H4.89566C4.43468 6.70486 4.4672 4.77876 4.49347 4.37662C4.48795 4.3517 4.14958 4.55226 4.10526 4.5825C3.69848 4.87286 3.31819 5.19865 2.96884 5.55605C2.5713 5.95919 2.20808 6.39479 1.88294 6.8583C1.88294 6.85888 1.8826 6.85955 1.8824 6.86013C1.8824 6.85951 1.88274 6.85888 1.88294 6.8583C1.13518 7.91795 0.604849 9.11529 0.322597 10.3811C0.317032 10.4063 0.312339 10.4325 0.30692 10.4579C0.285049 10.5602 0.206274 11.0724 0.192484 11.1837C0.191419 11.1922 0.190936 11.2005 0.189919 11.209C0.0880761 11.7385 0.0250054 12.2747 0.00120966 12.8134C0.00120966 12.8332 0 12.8529 0 12.8728C0.000193548 19.2944 5.20665 24.4999 11.6288 24.4999C17.3803 24.4999 22.1559 20.3247 23.0908 14.8404C23.1105 14.6916 23.1263 14.542 23.1437 14.3918C23.3748 12.3978 23.118 10.3019 22.3894 8.54928ZM8.98646 17.6506C9.04084 17.6766 9.09194 17.705 9.14778 17.7299C9.1501 17.7315 9.15329 17.7333 9.15567 17.7348C9.09883 17.7076 9.04242 17.6795 8.98646 17.6506ZM21.2373 9.1577L21.2358 9.14643C21.2363 9.15054 21.2371 9.15485 21.2377 9.15896L21.2373 9.1577Z" fill="url(#paint0_linear_1333_6768)"/>
<path d="M22.3894 8.54843C21.8839 7.33275 20.8603 6.02029 20.0565 5.60547C20.7107 6.88797 21.0893 8.17449 21.234 9.13464C21.234 9.13183 21.2345 9.13696 21.2358 9.14557C21.2363 9.14968 21.2371 9.15399 21.2377 9.1581C22.3349 12.1325 21.7371 15.157 20.8758 17.0053C19.5433 19.865 16.317 22.7958 11.2673 22.6529C5.81139 22.4984 1.0049 18.4501 0.107661 13.148C-0.0558388 12.3118 0.107661 11.8873 0.189919 11.2084C0.0897097 11.7318 0.0515323 11.8829 0.00120971 12.8128C0.00120971 12.8326 0 12.8523 0 12.8722C9.67742e-05 19.2935 5.20655 24.4991 11.6287 24.4991C17.3802 24.4991 22.1558 20.3239 23.0907 14.8396C23.1104 14.6907 23.1262 14.5411 23.1436 14.391C23.3747 12.3969 23.1179 10.3011 22.3894 8.54843Z" fill="url(#paint1_radial_1333_6768)"/>
<path d="M22.3894 8.54843C21.8839 7.33275 20.8603 6.02029 20.0565 5.60547C20.7107 6.88797 21.0893 8.17449 21.234 9.13464C21.234 9.13183 21.2345 9.13696 21.2358 9.14557C21.2363 9.14968 21.2371 9.15399 21.2377 9.1581C22.3349 12.1325 21.7371 15.157 20.8758 17.0053C19.5433 19.865 16.317 22.7958 11.2673 22.6529C5.81139 22.4984 1.0049 18.4501 0.107661 13.148C-0.0558388 12.3118 0.107661 11.8873 0.189919 11.2084C0.0897097 11.7318 0.0515323 11.8829 0.00120971 12.8128C0.00120971 12.8326 0 12.8523 0 12.8722C9.67742e-05 19.2935 5.20655 24.4991 11.6287 24.4991C17.3802 24.4991 22.1558 20.3239 23.0907 14.8396C23.1104 14.6907 23.1262 14.5411 23.1436 14.391C23.3747 12.3969 23.1179 10.3011 22.3894 8.54843Z" fill="url(#paint2_radial_1333_6768)"/>
<path d="M16.7381 9.91723C16.7634 9.93504 16.7865 9.95275 16.8103 9.97046C16.5185 9.45251 16.1551 8.97829 15.7308 8.56181C12.116 4.94749 14.7829 0.724939 15.2327 0.510487C15.234 0.508745 15.2367 0.504826 15.2375 0.503906C12.3164 2.21468 11.3254 5.37944 11.2344 6.96281C11.3699 6.95343 11.505 6.94205 11.6429 6.94205C13.8227 6.94205 15.7214 8.1406 16.7381 9.91723Z" fill="url(#paint3_radial_1333_6768)"/>
<path d="M11.652 10.6383C11.633 10.9275 10.611 11.925 10.2536 11.925C6.94691 11.925 6.41016 13.9251 6.41016 13.9251C6.55662 15.6095 7.72924 16.9965 9.1494 17.7304C9.21419 17.7639 9.27975 17.7941 9.34537 17.824C9.45786 17.8738 9.57176 17.9204 9.68693 17.9637C10.1739 18.1361 10.6839 18.2344 11.2 18.2555C16.9959 18.5273 18.1187 11.3268 13.9361 9.23577C15.0072 9.04948 16.1191 9.48027 16.74 9.91643C15.7233 8.13995 13.8247 6.94141 11.6448 6.94141C11.5069 6.94141 11.3719 6.95278 11.2363 6.96216C10.0698 7.04236 8.95457 7.47213 8.03592 8.19545C8.21321 8.34545 8.41333 8.54597 8.83498 8.96132C9.62379 9.73876 11.6477 10.5438 11.652 10.6383Z" fill="url(#paint4_radial_1333_6768)"/>
<path d="M11.652 10.6383C11.633 10.9275 10.611 11.925 10.2536 11.925C6.94691 11.925 6.41016 13.9251 6.41016 13.9251C6.55662 15.6095 7.72924 16.9965 9.1494 17.7304C9.21419 17.7639 9.27975 17.7941 9.34537 17.824C9.45786 17.8738 9.57176 17.9204 9.68693 17.9637C10.1739 18.1361 10.6839 18.2344 11.2 18.2555C16.9959 18.5273 18.1187 11.3268 13.9361 9.23577C15.0072 9.04948 16.1191 9.48027 16.74 9.91643C15.7233 8.13995 13.8247 6.94141 11.6448 6.94141C11.5069 6.94141 11.3719 6.95278 11.2363 6.96216C10.0698 7.04236 8.95457 7.47213 8.03592 8.19545C8.21321 8.34545 8.41333 8.54597 8.83498 8.96132C9.62379 9.73876 11.6477 10.5438 11.652 10.6383Z" fill="url(#paint5_radial_1333_6768)"/>
<path d="M7.49315 7.80721C7.57413 7.85945 7.65448 7.91268 7.73416 7.96688C7.46911 7.03959 7.45785 6.05814 7.70155 5.125C6.50696 5.66892 5.57783 6.52872 4.90234 7.28791C4.95823 7.28632 6.64496 7.25598 7.49315 7.80721Z" fill="url(#paint6_radial_1333_6768)"/>
<path d="M0.107204 13.1496C1.00445 18.4518 5.81093 22.5 11.2668 22.6545C16.3166 22.7974 19.5428 19.8664 20.8753 17.0069C21.7366 15.1585 22.3344 12.1344 21.2372 9.15976L21.2368 9.1585L21.2353 9.14723C21.2341 9.13862 21.2334 9.13349 21.2336 9.1363C21.2336 9.13818 21.2343 9.14288 21.2358 9.15565C21.6483 11.8489 20.2782 14.4581 18.1366 16.2223L18.1301 16.2374C13.957 19.6353 9.96366 18.2875 9.15511 17.7358C9.09828 17.7084 9.04182 17.6803 8.98576 17.6515C6.55276 16.4888 5.54766 14.2722 5.76318 12.3713C3.7088 12.3713 3.0083 10.6386 3.0083 10.6386C3.0083 10.6386 4.85277 9.32346 7.28369 10.4672C9.53514 11.5266 11.6496 10.6387 11.6498 10.6386C11.6455 10.5441 9.62156 9.73905 8.83256 8.96167C8.41097 8.54631 8.21079 8.34604 8.0335 8.1958C7.93732 8.11455 7.83676 8.03863 7.73229 7.96838C7.65251 7.9143 7.57217 7.86108 7.49127 7.8087C6.64314 7.25747 4.95637 7.28781 4.90048 7.28926H4.89511C4.43413 6.70538 4.46664 4.77928 4.49292 4.37714C4.4874 4.35222 4.14903 4.55278 4.10471 4.58302C3.69792 4.87338 3.31763 5.19917 2.96829 5.55657C2.57074 5.95981 2.20751 6.39549 1.88238 6.8591C1.88238 6.85968 1.88204 6.86036 1.88185 6.86094C1.88185 6.86031 1.88219 6.85968 1.88238 6.8591C1.13462 7.91875 0.604295 9.11609 0.322043 10.3819C0.316478 10.4071 -0.0965057 12.213 0.107204 13.1496Z" fill="url(#paint7_radial_1333_6768)"/>
<path d="M15.7304 8.5606C16.1547 8.97708 16.5181 9.4513 16.8099 9.96925C16.8739 10.0173 16.9337 10.0653 16.9845 10.1121C19.6207 12.5411 18.2395 15.9766 18.1365 16.2214C20.2781 14.4573 21.6482 11.8481 21.2357 9.1548C19.9208 5.87744 17.6911 4.55589 15.8705 1.67841C15.7785 1.53291 15.6864 1.38702 15.5966 1.23324C15.5508 1.15471 15.5081 1.07446 15.4685 0.992663C15.3929 0.846623 15.3345 0.692257 15.2947 0.532695C15.295 0.525141 15.2924 0.517756 15.2875 0.51199C15.2826 0.506224 15.2758 0.502495 15.2683 0.501534C15.2611 0.499489 15.2536 0.499489 15.2464 0.501534C15.2448 0.502114 15.2424 0.504001 15.2406 0.504679C15.2381 0.505695 15.2348 0.508018 15.2321 0.509518C14.7825 0.723776 12.1156 4.94633 15.7304 8.5606Z" fill="url(#paint8_radial_1333_6768)"/>
<path d="M16.9859 10.1127C16.9351 10.0659 16.8753 10.018 16.8113 9.96985C16.7876 9.95205 16.7644 9.93434 16.739 9.91663C16.1181 9.48047 15.0063 9.04968 13.9351 9.23597C18.1178 11.327 16.9949 18.5275 11.1991 18.2557C10.683 18.2346 10.1729 18.1363 9.68597 17.9639C9.57082 17.9206 9.45692 17.874 9.34441 17.8242C9.27879 17.7943 9.21323 17.7641 9.14844 17.7306C9.15076 17.7322 9.15395 17.734 9.15632 17.7354C9.96488 18.287 13.9582 19.635 18.1314 16.2371L18.1378 16.2219C18.2408 15.9774 19.6221 12.5418 16.9859 10.1127Z" fill="url(#paint9_radial_1333_6768)"/>
<path d="M6.40745 13.9256C6.40745 13.9256 6.94421 11.9255 10.2509 11.9255C10.6084 11.9255 11.6304 10.928 11.6493 10.6388C11.6683 10.3495 9.53482 11.5268 7.28321 10.4674C4.85229 9.32366 3.00781 10.6388 3.00781 10.6388C3.00781 10.6388 3.70831 12.3715 5.76269 12.3715C5.54722 14.2724 6.55232 16.4892 8.98528 17.6517C9.03967 17.6776 9.09077 17.706 9.14661 17.731C7.72654 16.997 6.55392 15.61 6.40745 13.9256Z" fill="url(#paint10_radial_1333_6768)"/>
<path d="M22.3893 8.54928C21.8839 7.3336 20.8602 6.02115 20.0564 5.60633C20.7106 6.88883 21.0892 8.17534 21.2339 9.13549C21.2339 9.13738 21.2346 9.14207 21.2362 9.15484C19.9213 5.87744 17.6916 4.55589 15.871 1.67841C15.779 1.53291 15.6869 1.38702 15.5971 1.23324C15.5513 1.15471 15.5086 1.07446 15.469 0.992663C15.3934 0.846623 15.335 0.692257 15.2952 0.532695C15.2954 0.525141 15.2929 0.517756 15.288 0.51199C15.2831 0.506224 15.2762 0.502495 15.2687 0.501534C15.2616 0.499489 15.2541 0.499489 15.2469 0.501534C15.2453 0.502114 15.2429 0.504001 15.2411 0.504679C15.2386 0.505695 15.2353 0.508018 15.2326 0.509518C15.2339 0.507776 15.2366 0.503856 15.2374 0.502937C12.3163 2.21371 11.3253 5.37847 11.2343 6.96184C11.3698 6.95246 11.5049 6.94109 11.6428 6.94109C13.8227 6.94109 15.7214 8.13963 16.7379 9.91612C16.117 9.47996 15.0052 9.04917 13.934 9.23546C18.1167 11.3265 16.9938 18.527 11.198 18.2552C10.6819 18.2341 10.1718 18.1358 9.68488 17.9634C9.56972 17.9201 9.45582 17.8735 9.34331 17.8237C9.2777 17.7938 9.21213 17.7636 9.14734 17.7301C9.14967 17.7317 9.15286 17.7335 9.15523 17.7349C9.0984 17.7076 9.04194 17.6795 8.98588 17.6506C9.04026 17.6766 9.09136 17.705 9.1472 17.7299C7.72704 16.996 6.55442 15.609 6.40795 13.9246C6.40795 13.9246 6.94471 11.9245 10.2514 11.9245C10.6089 11.9245 11.6309 10.927 11.6498 10.6378C11.6455 10.5433 9.62158 9.73825 8.83258 8.96086C8.41099 8.54551 8.21081 8.34523 8.03352 8.19499C7.93734 8.11375 7.83678 8.03783 7.73231 7.96757C7.46726 7.04027 7.456 6.05883 7.6997 5.1257C6.50512 5.66962 5.57599 6.52941 4.9005 7.2886H4.89513C4.43415 6.70471 4.46666 4.77862 4.49294 4.37647C4.48742 4.35155 4.14905 4.55212 4.10473 4.58236C3.69794 4.87272 3.31765 5.1985 2.96831 5.55591C2.57088 5.95911 2.20777 6.39475 1.88274 6.8583C1.88274 6.85888 1.8824 6.85955 1.88221 6.86013C1.88221 6.85951 1.88255 6.85888 1.88274 6.8583C1.13499 7.91795 0.604655 9.11529 0.322403 10.3811C0.316839 10.4063 0.312145 10.4325 0.306726 10.4579C0.284855 10.5602 0.186436 11.0798 0.172694 11.1912C0.171629 11.1998 0.17371 11.1827 0.172694 11.1912C0.0829428 11.7281 0.0256774 12.2699 0.00120966 12.8136C0.00120966 12.8335 0 12.8531 0 12.873C0 19.2944 5.20645 24.4999 11.6286 24.4999C17.3801 24.4999 22.1557 20.3247 23.0906 14.8404C23.1103 14.6916 23.1261 14.542 23.1435 14.3918C23.3746 12.3978 23.1178 10.3019 22.3893 8.54928ZM21.2357 9.14643C21.2362 9.15054 21.237 9.15485 21.2376 9.15896L21.2372 9.1577L21.2357 9.14643Z" fill="url(#paint11_linear_1333_6768)"/>
<defs>
<linearGradient id="paint0_linear_1333_6768" x1="20.2647" y1="4.21999" x2="1.59272" y2="22.2318" gradientUnits="userSpaceOnUse">
<stop offset="0.05" stop-color="#FFF44F"/>
<stop offset="0.37" stop-color="#FF980E"/>
<stop offset="0.53" stop-color="#FF3647"/>
<stop offset="0.7" stop-color="#E31587"/>
</linearGradient>
<radialGradient id="paint1_radial_1333_6768" cx="0" cy="0" r="1" gradientUnits="userSpaceOnUse" gradientTransform="translate(16.0933 3.17443) scale(23.7833 24.1839)">
<stop offset="0.13" stop-color="#FFBD4F"/>
<stop offset="0.28" stop-color="#FF980E"/>
<stop offset="0.47" stop-color="#FF3750"/>
<stop offset="0.78" stop-color="#EB0878"/>
<stop offset="0.86" stop-color="#E50080"/>
</radialGradient>
<radialGradient id="paint2_radial_1333_6768" cx="0" cy="0" r="1" gradientUnits="userSpaceOnUse" gradientTransform="translate(9.1971 13.1629) scale(24.3779 24.1839)">
<stop offset="0.3" stop-color="#960E18"/>
<stop offset="0.35" stop-color="#B11927" stop-opacity="0.74"/>
<stop offset="0.43" stop-color="#DB293D" stop-opacity="0.34"/>
<stop offset="0.5" stop-color="#F5334B" stop-opacity="0.09"/>
<stop offset="0.53" stop-color="#FF3750" stop-opacity="0"/>
</radialGradient>
<radialGradient id="paint3_radial_1333_6768" cx="0" cy="0" r="1" gradientUnits="userSpaceOnUse" gradientTransform="translate(13.9108 -0.632081) scale(7.80631 13.2532)">
<stop offset="0.13" stop-color="#FFF44F"/>
<stop offset="0.53" stop-color="#FF980E"/>
</radialGradient>
<radialGradient id="paint4_radial_1333_6768" cx="0" cy="0" r="1" gradientUnits="userSpaceOnUse" gradientTransform="translate(8.76122 19.4076) scale(10.3298 11.3216)">
<stop offset="0.35" stop-color="#3A8EE6"/>
<stop offset="0.67" stop-color="#9059FF"/>
<stop offset="1" stop-color="#C139E6"/>
</radialGradient>
<radialGradient id="paint5_radial_1333_6768" cx="0" cy="0" r="1" gradientUnits="userSpaceOnUse" gradientTransform="translate(10.5263 10.6775) scale(5.48514 6.67974)">
<stop offset="0.21" stop-color="#9059FF" stop-opacity="0"/>
<stop offset="0.97" stop-color="#6E008B" stop-opacity="0.6"/>
</radialGradient>
<radialGradient id="paint6_radial_1333_6768" cx="0" cy="0" r="1" gradientUnits="userSpaceOnUse" gradientTransform="translate(10.8492 2.28312) scale(8.21228 8.24146)">
<stop offset="0.1" stop-color="#FFE226"/>
<stop offset="0.79" stop-color="#FF7139"/>
</radialGradient>
<radialGradient id="paint7_radial_1333_6768" cx="0" cy="0" r="1" gradientUnits="userSpaceOnUse" gradientTransform="translate(18.3474 -3.12164) scale(39.207 32.9121)">
<stop offset="0.11" stop-color="#FFF44F"/>
<stop offset="0.46" stop-color="#FF980E"/>
<stop offset="0.72" stop-color="#FF3647"/>
<stop offset="0.9" stop-color="#E31587"/>
</radialGradient>
<radialGradient id="paint8_radial_1333_6768" cx="0" cy="0" r="1" gradientUnits="userSpaceOnUse" gradientTransform="translate(3.78656 7.7464) rotate(77.3945) scale(12.439 53.8096)">
<stop stop-color="#FFF44F"/>
<stop offset="0.3" stop-color="#FF980E"/>
<stop offset="0.57" stop-color="#FF3647"/>
<stop offset="0.74" stop-color="#E31587"/>
</radialGradient>
<radialGradient id="paint9_radial_1333_6768" cx="0" cy="0" r="1" gradientUnits="userSpaceOnUse" gradientTransform="translate(10.933 5.24891) scale(22.5106 22.1151)">
<stop offset="0.14" stop-color="#FFF44F"/>
<stop offset="0.48" stop-color="#FF980E"/>
<stop offset="0.66" stop-color="#FF3647"/>
<stop offset="0.9" stop-color="#E31587"/>
</radialGradient>
<radialGradient id="paint10_radial_1333_6768" cx="0" cy="0" r="1" gradientUnits="userSpaceOnUse" gradientTransform="translate(16.774 6.54271) scale(27.057 24.2057)">
<stop offset="0.09" stop-color="#FFF44F"/>
<stop offset="0.63" stop-color="#FF980E"/>
</radialGradient>
<linearGradient id="paint11_linear_1333_6768" x1="18.5806" y1="3.85999" x2="3.64957" y2="20.1739" gradientUnits="userSpaceOnUse">
<stop offset="0.17" stop-color="#FFF44F" stop-opacity="0.8"/>
<stop offset="0.6" stop-color="#FFF44F" stop-opacity="0"/>
</linearGradient>
</defs>
</svg>
